<svg xmlns="http://www.w3.org/2000/svg" viewBox="0 0 121.9 15" width="124" height="25"><path fill="#FFF" d="M3.8 10.1c.7 0 1.2-.1 1.7-.3.5-.2.9-.5 1.2-.9.3-.3.5-.8.7-1.3.1-.5.2-1 .2-1.6 0-1.3-.3-2.2-.8-3S5.4 1.9 4.1 1.9H1.9V10h1.9zM4.1.3c.8 0 1.6.1 2.3.3.7.2 1.2.6 1.7 1 .5.5.8 1.1 1.1 1.8s.4 1.6.4 2.5c0 .9-.1 1.8-.4 2.5-.3.8-.7 1.4-1.2 1.8-.5.5-1.1.9-1.8 1.1s-1.5.4-2.4.4H0V.3h4.1zm14.7 8.9c-.1.9-.5 1.5-1.1 2-.6.5-1.4.7-2.5.7-1.3 0-2.3-.4-3-1.1-.7-.8-1-1.8-1-3.2 0-.7.1-1.3.3-1.9.2-.6.5-1 .8-1.4.4-.4.8-.7 1.3-.9s1-.3 1.6-.3c.6 0 1.2.1 1.7.3s.9.5 1.2.8c.3.4.5.8.7 1.3.1.5.2 1 .2 1.7V8h-6c0 .8.2 1.4.6 1.8.4.5.9.7 1.6.7.6 0 1-.1 1.3-.3s.5-.5.6-1h1.7zm-1.6-2.5c0-.7-.2-1.2-.5-1.6-.3-.4-.8-.6-1.5-.6s-1.2.2-1.5.6c-.4.4-.6.9-.6 1.6h4.1zM22 9.2c0 .3.1.5.2.7.1.2.3.3.4.4.2.1.4.2.6.2.2 0 .5.1.8.1.6 0 1-.1 1.3-.3.3-.2.4-.4.4-.8 0-.3-.1-.5-.2-.7s-.5-.3-1-.4c-.7-.1-1.2-.2-1.7-.3-.5-.1-.9-.3-1.3-.4-.3-.2-.6-.4-.8-.7-.2-.3-.3-.7-.3-1.2 0-.4.1-.7.3-1 .2-.3.4-.6.7-.8.3-.2.7-.4 1.1-.5s.9-.2 1.4-.2c.6 0 1.2.1 1.6.2.4.1.8.3 1 .5.3.2.5.5.6.8l.3.9-1.6.2c-.1-.4-.3-.7-.6-.9-.3-.2-.7-.3-1.3-.3-.4 0-.6 0-.9.1-.2.1-.4.1-.5.2l-.3.3c-.1.1-.1.2-.1.4s0 .3.1.4c0 .1.1.2.2.3.1.1.3.1.5.2s.4.1.7.2l1 .2c.6.1 1 .2 1.4.4s.7.3.9.6.4.5.5.8c.1.3.1.6.1 1 0 .8-.3 1.4-.9 1.8-.5.1-1.4.4-2.6.4-.5 0-.9 0-1.4-.1-.4-.1-.8-.2-1.2-.5-.4-.2-.6-.5-.9-.9-.2-.4-.3-.8-.4-1.4H22zM31.1.3v1.8h-1.9V.3h1.9zM31 3.4v8.3h-1.8V3.4H31zm4 9c.1.4.3.8.6.9s.7.3 1.4.3c.5 0 .9-.1 1.2-.3s.5-.5.6-.9.2-.9.2-1.6v-.6c-.3.4-.7.8-1.1 1s-1 .3-1.5.3c-1.1 0-2-.4-2.6-1.1-.6-.7-.9-1.8-.9-3.1s.3-2.3 1-3.1S35.4 3 36.6 3c1 0 1.9.4 2.5 1.3v-1h1.8v7.1c0 1.6-.3 2.8-.9 3.5S38.3 15 37 15c-1.2 0-2.1-.2-2.7-.6s-1-1.1-1.1-2H35zm4-5.2c0-.9-.2-1.5-.5-2s-.9-.7-1.6-.7c-.7 0-1.2.2-1.6.7s-.6 1.1-.6 2c0 .9.2 1.5.5 2 .4.5.9.7 1.5.7.7 0 1.3-.2 1.6-.7s.7-.9.7-1.7v-.3zm5.6-3.8v1.2c.4-.5.8-.9 1.3-1.1.5-.2 1-.4 1.5-.4 1.9 0 2.8 1 2.8 3.1v5.5h-1.8V6.5c0-.7-.1-1.1-.4-1.4s-.6-.4-1.1-.4c-.3 0-.6.1-.9.2-.3.1-.5.3-.7.5s-.3.3-.4.6c-.1.3-.2.5-.2.8v5h-1.8V3.4h1.7zM52.4.3h4c.8 0 1.5.1 2 .2.5.2 1 .4 1.3.6s.5.6.6 1c.1.4.2.8.2 1.2 0 .5-.1.9-.3 1.3-.2.4-.6.7-1.2 1 .4.2.7.3.9.5l.6.6c.2.2.2.5.3.7.1.3.1.5.1.8 0 .5-.1.9-.2 1.3s-.4.8-.7 1.1c-.3.3-.8.5-1.3.7s-1.2.3-2 .3h-4.2V.3zM56.5 5c.8 0 1.3-.1 1.6-.4s.4-.7.4-1.2-.2-.9-.5-1.2-.9-.4-1.8-.4h-2V5h2.3zm0 5.2c.5 0 .8 0 1.1-.1.3-.1.5-.2.7-.4.2-.2.3-.4.4-.6.1-.2.1-.5.1-.8 0-.6-.2-1-.5-1.3-.3-.3-.9-.5-1.7-.5h-2.5v3.6h2.4zm13.3-1c-.1.9-.5 1.5-1.1 2-.6.5-1.4.7-2.5.7-1.3 0-2.3-.4-3-1.1s-1-1.8-1-3.2c0-.7.1-1.3.3-1.9.2-.6.5-1 .8-1.4.4-.4.8-.7 1.3-.9s1-.3 1.6-.3c.6 0 1.2.1 1.7.3s.9.5 1.2.8c.3.4.5.8.7 1.3.1.5.2 1 .2 1.7V8h-6c0 .8.2 1.4.6 1.8.4.5.9.7 1.6.7.6 0 1-.1 1.3-.3.3-.2.5-.5.6-1h1.7zm-1.7-2.5c0-.7-.2-1.2-.5-1.6-.3-.4-.8-.6-1.5-.6s-1.2.2-1.5.6c-.4.4-.6 1-.6 1.6h4.1zm2.8-1.9V3.4h1.3V1.2H74v2.2h2.1v1.4H74v4.4c0 .4.1.7.3.9.2.2.4.3.8.3h.5c.1 0 .3-.1.5-.1l.3 1.4c-.5.2-1.1.3-1.7.3-.9 0-1.6-.2-1.9-.7-.4-.5-.5-1.2-.5-2.1V4.8h-1.4zm5.8 0V3.4H78V1.2h1.8v2.2h2.1v1.4h-2.1v4.4c0 .4.1.7.3.9s.4.3.8.3h.5c.1 0 .3-.1.5-.1l.3 1.4c-.5.2-1.1.3-1.7.3-.9 0-1.6-.2-1.9-.7-.4-.6-.6-1.3-.6-2.3V4.8h-1.3zm14 4.4c-.1.9-.5 1.5-1.1 2-.6.5-1.4.8-2.5.8-1.3 0-2.3-.4-3-1.1S83 9 83 7.6c0-.7.1-1.3.3-1.9.2-.6.5-1 .8-1.4.4-.4.8-.7 1.3-.9s1-.3 1.6-.3c.6 0 1.2.1 1.7.3.5.2.9.5 1.2.8.3.4.5.8.7 1.3.1.5.2 1 .2 1.7V8h-6c0 .8.2 1.4.6 1.8s.9.7 1.6.7c.6 0 1-.1 1.3-.3s.5-.5.6-1h1.8zM89 6.7c0-.7-.2-1.2-.5-1.6-.3-.4-.8-.6-1.5-.6s-1.2.2-1.5.6c-.4.4-.6.9-.6 1.6H89zm5.4-3.3v1.2c.3-.4.6-.8 1-1 .4-.2.8-.4 1.3-.4h.9L97.3 5c-.1 0-.2-.1-.4-.1h-.4c-.3 0-.6.1-.9.2-.3.1-.5.3-.6.4-.2.2-.3.4-.4.6s-.1.5-.1.7v4.9h-1.8V3.4h1.7zm6.3 6.1v2.2h-1.9V9.5h1.9zm11.6-1.6c-.1.6-.2 1.1-.4 1.6s-.5.9-.9 1.3-.9.7-1.4.9c-.6.2-1.2.3-2 .3s-1.6-.1-2.2-.4-1.2-.7-1.6-1.2c-.4-.5-.8-1.1-1-1.9s-.3-1.6-.3-2.5c0-.9.1-1.8.4-2.5.3-.7.6-1.4 1.1-1.9.5-.5 1-.9 1.6-1.2.6-.3 1.3-.4 2.1-.4.7 0 1.3.1 1.9.3.5.2 1 .4 1.3.8.4.3.7.7.9 1.2.2.5.4 1 .5 1.6l-1.9.3c-.1-.4-.2-.7-.3-1-.1-.3-.3-.6-.5-.8-.2-.2-.5-.4-.8-.5-.3-.1-.7-.2-1.1-.2-.5 0-1 .1-1.4.3-.4.2-.7.5-1 .9-.3.4-.5.8-.6 1.4-.1.5-.2 1.1-.2 1.8s.1 1.3.2 1.8.4 1 .6 1.4c.3.4.6.7 1 .9s.8.3 1.3.3c.4 0 .8-.1 1.1-.2s.6-.3.8-.5c.2-.2.4-.5.5-.8.1-.3.2-.6.3-1h2zm5.5 2.6c.8 0 1.3-.3 1.7-.8.4-.5.5-1.3.5-2.2 0-.9-.2-1.6-.5-2.1s-.9-.8-1.7-.8c-.8 0-1.3.3-1.7.8-.4.5-.5 1.2-.5 2.1 0 .9.2 1.6.5 2.2.3.5.9.8 1.7.8zm0 1.5c-1.3 0-2.3-.4-3-1.2-.7-.8-1.1-1.9-1.1-3.3 0-.7.1-1.3.3-1.8s.5-1 .8-1.4c.4-.4.8-.7 1.3-.9.5-.2 1.1-.3 1.7-.3.7 0 1.2.1 1.8.3.5.2.9.5 1.3.9.3.4.6.8.8 1.4.2.5.3 1.1.3 1.8s-.1 1.4-.3 1.9c-.2.5-.5 1-.9 1.4-.4.4-.8.7-1.3.9s-1.1.3-1.7.3z"/></svg>