<svg width="578" height="444" viewBox="0 0 578 444" xmlns="http://www.w3.org/2000/svg" xmlns:xlink="http://www.w3.org/1999/xlink" preserveAspectRatio="xMinYMin slice">
  <defs>
    <path id="a" d="M.7 35.16V.3h34.9v34.86z"/>
    <path id="c" d="M37.72 22.92V.72H.26v22.2h37.46z"/>
    <path id="e" d="M.03 26.6h38.83V.5H.03z"/>
    <path id="g" d="M.55.35v40.5h40.5V.34H.55z"/>
    <path id="i" d="M.27.32h41.2v24.92H.27V.32z"/>
    <path id="k" d="M.27.32h41.2v24.92H.27V.32z"/>
    <path id="m" d="M20.2.1v20.8H.16V.1H20.2z"/>
  </defs>
  <g fill="none" fill-rule="evenodd">
    <g class="animation-hero-left">
        <path d="M57.96 181.43L29.8 217.5a78.906 78.906 0 0 0-11.64 20.75l-10.5 28.02 9.27 3.73 15.88-34.2L71 201.84l-13.04-20.4z" fill="#373867"/>
        <path d="M57.96 181.43L29.8 217.5a78.906 78.906 0 0 0-11.64 20.75l-10.5 28.02 5.7 2.3c3.14-8.8 6.97-17.34 11.44-25.54 1.35-2.48 2.8-5.02 3.1-7.83.25-2.57-.3-5.65 1.68-7.32 1.32-1.12 3.23-1.06 4.93-1.37 1.7-.3 3.62-1.5 3.42-3.23-.13-1.18-1.24-2.03-1.56-3.17-.36-1.25.28-2.56.98-3.65 2.62-4.08 6.2-7.95 10.8-9.43 4.92-1.57 12.54-4.44 21.16-7.84l-11.34-17.75z" fill="#1B0042"/>
        <g transform="translate(62.063 123.59)">
          <mask id="b" fill="#fff">
            <use xlink:href="#a"/>
          </mask>
          <path d="M35.6 17.72c0 9.63-7.82 17.44-17.45 17.44C8.52 35.16.7 27.36.7 17.72.7 8.1 8.53.28 18.16.28S35.6 8.08 35.6 17.72" fill="#CE599E" mask="url(#b)"/>
        </g>
        <path d="M74.92 140.14c-.22 3.92.43 7.94 2.26 11.4 2.13 4.05 5.74 7.15 9.72 9.37 4 2.24 8.36 3.66 12.72 5 .9.28 1.86.56 2.78.35.76-.18 1.43-.7 1.8-1.4.6-1.23.22-2.75.7-4.03.34-.9 1.1-1.83.75-2.74-.12-.28-.35-.54-.35-.85 0-.36.3-.65.47-.98.27-.56.08-1.25-.23-1.8-.32-.53-.76-1-1.04-1.55-.13-.25-.22-.52-.17-.8.12-.7 1.06-.9 1.5-1.5.63-.88-.14-2.07-.87-2.87-.68-.75-1.35-1.5-2.03-2.23-.57-.63-1.17-1.33-1.2-2.17-.05-.92.58-1.73.7-2.63.12-.7-.1-1.42-.3-2.1-1.64-4.75-4.82-8.9-8.86-11.9-7.92-5.9-18.7-1.9-18.7-1.9l.35 15.34z" fill="#FCE3D9"/>
        <path d="M101.48 166.26c-8.68 0-9.7 3.24-12.85 11.46-3.14 8.22-3 10.73-3 10.73-.28.8-1.1-3.63-1.58-2.92-.55.8-1.34 1.42-2.18 1.9-3.56 2.1-8.3 2-11.7-.32-3.4-2.33-5.16-6.86-4.1-10.84 1-3.76 4.22-6.76 4.7-10.62.27-2.22-.4-4.44-1.07-6.58-.7-2.27-1.43-4.56-2.72-6.55-.7-1.06-1.54-2.04-2.05-3.2-.5-1.18-.6-2.64.17-3.64.6-.78 1.6-1.13 2.57-1.37 5.88-1.48 12.4-.22 17.3 3.34" fill="#FCE3D9"/>
        <path d="M104.5 152.9c-.13-.24-.22-.52-.17-.8.12-.7 1.06-.9 1.5-1.5.63-.88-.14-2.07-.87-2.87-.68-.75-1.35-1.5-2.03-2.23-.57-.63-1.17-1.33-1.2-2.18-.05-.9.58-1.72.7-2.62.12-.7-.08-1.42-.32-2.1-1.6-4.75-4.8-8.9-8.83-11.9-7.92-5.9-18.7-1.9-18.7-1.9l.35 15.34c-.06 1.23-.05 2.46.06 3.68-2.44-.27-4.93-.12-7.3.47-.97.23-1.97.58-2.58 1.36-.78 1-.68 2.46-.17 3.63.5 1.16 1.36 2.14 2.05 3.2 1.3 2 2 4.3 2.72 6.56.67 2.14 1.34 4.36 1.07 6.58-.48 3.86-3.7 6.86-4.7 10.62-1.06 3.98.7 8.5 4.1 10.85 3.4 2.34 8.14 2.43 11.7.35.84-.5 1.63-1.1 2.18-1.92.48-.7 1.3 3.73 1.58 2.92 0 0-.14-2.5 3-10.73 3.1-8.08 4.14-11.35 12.44-11.45.44.07.9.08 1.33-.02.76-.18 1.43-.7 1.8-1.4.6-1.23.22-2.75.7-4.03.34-.9 1.1-1.83.75-2.74-.12-.28-.35-.54-.35-.84 0-.37.3-.66.47-1 .27-.55.1-1.24-.23-1.78-.32-.54-.76-1-1.04-1.56" fill="#6C4170"/>
        <path d="M104.5 152.9c-.13-.24-.22-.52-.17-.8.12-.7 1.06-.9 1.5-1.5.63-.88-.14-2.07-.87-2.87-.68-.75-1.35-1.5-2.03-2.23-.57-.63-1.17-1.33-1.2-2.18-.05-.9.58-1.72.7-2.62.12-.7-.08-1.42-.32-2.1-1.6-4.75-4.8-8.9-8.83-11.9-7.92-5.9-18.7-1.9-18.7-1.9l.35 15.34c-.06 1.23-.05 2.46.06 3.68-2.44-.27-4.93-.12-7.3.47-.97.23-1.97.58-2.58 1.36-.78 1-.68 2.46-.17 3.63.5 1.16 1.36 2.14 2.05 3.2 1.3 2 2 4.3 2.72 6.56.67 2.14 1.34 4.36 1.07 6.58-.48 3.86-3.7 6.86-4.7 10.62-1.06 3.98.7 8.5 4.1 10.85 3.4 2.34 8.14 2.43 11.7.35.84-.5 1.63-1.1 2.18-1.92.48-.7 1.3 3.73 1.58 2.92 0 0-.14-2.5 3-10.73 3.1-8.08 4.14-11.35 12.44-11.45.44.07.9.08 1.33-.02.76-.18 1.43-.7 1.8-1.4.6-1.23.22-2.75.7-4.03.34-.9 1.1-1.83.75-2.74-.12-.28-.35-.54-.35-.84 0-.37.3-.66.47-1 .27-.55.1-1.24-.23-1.78-.32-.54-.76-1-1.04-1.56" fill="#6C4170"/>
        <path d="M105.82 150.6c.64-.88-.13-2.07-.86-2.87-.68-.75-1.35-1.5-2.03-2.23-.57-.63-1.17-1.33-1.2-2.18-.05-.9.58-1.72.7-2.62.12-.7-.08-1.42-.32-2.1-.4-1.18-.9-2.33-1.48-3.43l-.33 1.13c1.24 2.4-.85 5.47.18 7.98.45 1.1 1.45 1.9 2.32 2.73.87.85 1.7 1.9 1.66 3.1-.06 1.44-1.36 2.86-.74 4.16.16.34.44.6.62.95.17.34.2.8-.1 1.05-.2.18-.54.2-.68.44-.23.36.25.75.46 1.13.18.33.15.74.12 1.12l-.5 5.9-.07.78c.25-.22.47-.5.62-.8.6-1.2.22-2.73.7-4 .34-.92 1.1-1.84.75-2.75-.12-.28-.35-.54-.35-.85 0-.36.3-.65.47-.98.27-.56.1-1.25-.23-1.8-.32-.53-.76-1-1.04-1.55-.13-.25-.22-.52-.17-.8.12-.7 1.06-.9 1.5-1.5" fill="#CE599E"/>
        <path d="M100.62 166.28c-2.1-.15-4.18-.15-6.27-.02-2.76.2-5.63.67-7.83 2.33-1.07.8-1.93 1.84-2.74 2.9-3.14 4.07-5.8 8.5-7.93 13.2-.6 1.3-1.16 2.67-1.57 4.06 2.57.45 5.32 0 7.6-1.3.83-.5 1.62-1.12 2.17-1.93.48-.7 1.3 3.73 1.58 2.92 0 0-.14-2.5 3-10.73 3.03-7.93 4.1-11.22 12-11.44" fill="#6C4170"/>
        <path d="M74.06 146.14c.85-.73 1.75-1.42 2.68-2.05-3-.6-6.1-.55-9.07.2-.96.23-1.96.58-2.57 1.36-.78 1-.68 2.46-.17 3.63.5 1.16 1.36 2.14 2.05 3.2 1.3 2 2 4.3 2.72 6.56.67 2.14 1.34 4.36 1.07 6.58-.48 3.86-3.7 6.86-4.7 10.62-.23.86-.32 1.75-.3 2.64 1.05-1.05 2-2.2 2.86-3.42 2.52-3.62 4.26-7.78 5.05-12.12.43-2.4.57-4.94-.27-7.23-.74-2.06-2.28-4-1.95-6.17.24-1.55 1.4-2.8 2.6-3.82m28.01 4.01c-.13.26-.2.56-.18.85 0 .3.15.58.38.76.2.16.5.22.76.2.26 0 .53-.07.78-.14-.24.25-.5.5-.77.7-.08.07-.16.13-.26.17a.87.87 0 0 1-.48 0c-.52-.18-.9-.7-.92-1.26-.02-.54.3-1.08.75-1.38" fill="#1B0042"/>
        <path d="M93.27 126.7c-7.92-5.9-18.7-1.9-18.7-1.9-6.86 2.36-11.8 8.86-11.8 16.5 0 4.53 1.72 8.65 4.55 11.75 1.08 1.86 1.74 3.95 2.38 6 .45 1.46.9 2.95 1.07 4.46 3.9-.63 10.95-4.94 9.14-8.9-1.8-3.98-2.08-8.22 3.64-8.22v1.8h2.1v-1.56c0-.9.3-1.75.85-2.44l4.34-5.4c.55-.67.6-1.62.1-2.35l-.6-.88c-.7-1.04-.28-2.47.88-2.95l5.87-2.44a26.8 26.8 0 0 0-3.83-3.47" fill="#373867"/>
        <path d="M74.06 146.14c2.26-1.94 4.82-3.54 7.57-4.7l.93-12.95c-3.63-1.7-7.72-2.34-11.7-1.9-4.86 3.1-8.1 8.52-8.1 14.7 0 4.53 1.74 8.65 4.56 11.75 1.08 1.86 1.74 3.95 2.38 6 .45 1.46.9 2.95 1.07 4.46.9-.14 1.96-.48 3.04-.97.33-2.15.36-4.37-.4-6.4-.74-2.06-2.28-4-1.95-6.17.24-1.55 1.4-2.8 2.6-3.82" fill="#1B0042"/>
        <path d="M42.17 226.75l1.34-23.17c.47-7.84 3.86-15.23 9.52-20.68l7.04-6.8c3.6-3.46 9.25-3.6 13.02-.33l4.7 4.1c6.26 5.4 10.1 13.08 10.73 21.33l1.18 15.46c.6 8.1.54 16.24-.22 24.33l-3.7 39.56-51.3-7.8 6.28-34.2c.72-3.9 1.2-7.85 1.43-11.8" fill="#373867"/>
        <path d="M68.72 266.94c-.46-6.3-2.72-12.7-7.34-17-1.16-1.1-2.5-2.1-3.13-3.57-1.02-2.4.23-5.14 1.5-7.42a148.69 148.69 0 0 1 12.27-18.37c1.12-1.44 2.32-2.96 2.5-4.78.18-1.8-1.18-3.9-3-3.73-.67.07-1.5.37-1.93-.17-.26-.32-.2-.77-.12-1.16a36.842 36.842 0 0 1 6.37-14.3l-8.37-10.6c-2.45.74-5.68 1.2-7.02-.98-.8-1.3-.48-2.94-.4-4.45.08-1.25-.1-2.58-.5-3.8L53 182.9a31.193 31.193 0 0 0-9.5 20.68l-1.35 23.17c-.23 3.96-.7 7.9-1.43 11.8l-6.3 34.2 33.73 5.13c.54-3.63.82-7.28.55-10.94" fill="#1B0042"/>
        <g transform="translate(100.17 417.806)">
          <mask id="d" fill="#fff">
            <use xlink:href="#c"/>
          </mask>
          <path d="M4.48 22.92l33.24-10.04-.65-1.77C36.12 8.5 33.4 7 30.7 7.5c-1.16.23-2.34.1-3.4-.38L11.26.72.26 4.3l4.22 18.64z" fill="#FCE3D9" mask="url(#d)"/>
        </g>
        <g transform="translate(.03 416.92)">
          <mask id="f" fill="#fff">
            <use xlink:href="#e"/>
          </mask>
          <path d="M.03 21.92l24.12 4.67H38.8l.04-.72c.22-2.9-1.77-5.5-4.62-6.04-1.28-.24-2.43-.9-3.27-1.9l-14-16.32L5.55.52.04 21.9z" fill="#FCE3D9" mask="url(#f)"/>
        </g>
        <g transform="translate(25.73 265.38)">
          <mask id="h" fill="#fff">
            <use xlink:href="#g"/>
          </mask>
          <path d="M40.6 24.8c-2.3 10.93-13.06 17.92-24 15.6C5.66 38.08-1.32 27.33 1 16.4 3.32 5.46 14.06-1.53 25 .8c10.94 2.3 17.93 13.06 15.6 24" fill="#CE599E" mask="url(#h)"/>
        </g>
        <path d="M36.42 280.2l-10.55 73.6-21.22 66 13.15-.3 29.32-53.2c1.2-2.5 2.36-5.04 3.5-7.62 1.15-2.58 2.25-5.14 3.32-7.7l29.48-70.78h-47z" fill="#6C4170"/>
        <path d="M47.12 366.3c1.2-2.5 2.36-5.04 3.5-7.62 1.15-2.57 2.25-5.14 3.32-7.7l23.85-57.27-7.15-.3c1.83 8.77-1.14 17.85-5.2 25.82-4.1 7.97-9.3 15.4-12.46 23.76-2.26 5.98-3.42 12.32-5.57 18.33-2.3 6.45-5.7 12.42-8.93 18.44-3.93 7.33-7.63 14.78-11.1 22.34l19.72-35.8z" fill="#CE599E"/>
        <path d="M51.2 302.62l-9.46-16.35c-1.66-1.48-3.62-2.55-5.73-3.26l-10.13 70.8-21.22 66 6.65-.15c2.44-9.34 4.93-18.44 9.86-26.68 4.43-7.4 10.95-14.85 9.6-23.38-.37-2.36-1.36-4.62-1.47-7-.32-6.2 5.1-11.08 10.37-14.37 2.7-1.7 5.73-3.56 6.5-6.64 1.6-6.4-7.47-10.9-7.9-17.45-.14-2.03.6-4 1.43-5.86 2.7-5.95 6.65-11.33 11.5-15.68" fill="#1B0042"/>
        <path fill="#CE599E" d="M78.38 297.2l4.28-8.92L34.1 270l-1.76 17.43"/>
        <path d="M97.23 225.67L71 272.77" stroke="#CE599E" stroke-width="2.92"/>
        <path fill="#1B0042" d="M65.66 270.63l-2.26-1.25 26.23-47.1 2.26 1.27"/>
        <path d="M97.23 215.78l-14.78-31.5c-2.63-5.6-8.25-9.17-14.44-9.17-7.78 0-14.43 5.64-15.72 13.32l-12.72 75.94" stroke="#CE599E" stroke-width="2.92"/>
        <path d="M71.1 178.57c-6.38-2.75-13.73.72-15.68 7.4l-12.1 41.57c-1.8 6.17 3.6 12.04 9.9 10.76l40.25-8.15-1.1-11.86-29.82 2.38 14.16-25.92c3.28-6 .68-13.5-5.6-16.2" fill="#373867"/>
        <path d="M92.37 218.3l-29.82 2.38 14.16-25.92c2.76-5.04 1.36-11.15-2.9-14.57.1.74.05 1.72 1.2 3.5 1.37 2.13 1.52 4.98.55 7.33-1.4 3.4-4.97 5.6-6.3 9.03-.48 1.26-.64 2.62-1.03 3.92-1.66 5.5-7.36 9.17-8.54 14.78-.23 1.1-.27 2.26.15 3.3.42 1.03 1.37 1.9 2.48 1.98.55.04 1.12-.1 1.6.14.52.24.78.8 1.18 1.2 1.02 1.03 2.72.85 4.1.4 3.38-1.12 6.3-3.36 9.7-4.4 2.74-.85 5.65-.87 8.5-1.02 1.72-.08 3.46-.23 5.12-.6l-.13-1.47z" fill="#CE599E"/>
        <path d="M10.7 287.55l-.98 1.02c-.7.74-1.87.8-2.66.15a1.98 1.98 0 0 1-.7-1.77l.3-2.3-5.45-7.1a5.732 5.732 0 0 1-1-4.87l.54-2.13c.38-1.46 1.3-2.7 2.6-3.48l3.06-1.83c2.02-1.2 4.62-.88 6.27.8l2.8 2.86a5.072 5.072 0 0 1 1.4 4.44l-.48 2.86c-.73 4.27-2.7 8.22-5.7 11.35m69.78 71.17l19.92 63.66 11.03-3.84-6.23-58.77c-1.3-8.28-3.2-16.45-5.68-24.45l-14.9-48.02h-42.7l38.56 71.42z" fill="#6C4170"/>
        <path d="M105.2 359.77c-1.3-8.28-3.2-16.45-5.68-24.45l-14.9-48.02H78c.5 1.08 1.12 2.13 1.78 3.12 2.5 3.77 5.72 7.1 7.67 11.2 3.86 8.12 2.15 17.9 5.17 26.36 1.85 5.2 5.4 9.67 7.47 14.8 1.88 4.68 2.47 9.77 3.04 14.8 1.02 8.84 2.03 17.7 2.6 26.6.73 11.87.67 23.9 1.76 35.73l3.93-1.37-6.23-58.76z" fill="#CE599E"/>
        <path d="M100.4 422.38l4.95-1.46c-2.1-9.3-4.26-18.6-4.53-28.1-.23-8.34.82-17.38-3.75-24.35-2.95-4.5-8.1-7.84-8.95-13.14-.6-3.67 1.1-7.45.42-11.12-1.26-6.85-9.5-9.55-14.35-14.56-3.7-3.82-5.46-9.18-5.87-14.48-.4-5.3.4-10.6 1.23-15.85l-21.44-12h-6.2l38.56 71.42 19.92 63.66z" fill="#1B0042"/>
        <path d="M74.25 313.43l-56.2-11.92a4.303 4.303 0 0 1-3.34-5.1L22 262.1c.47-2.18 2.62-3.58 4.8-3.1l56.73 12c2.2.47 3.58 2.62 3.12 4.8l-7.27 34.28c-.5 2.34-2.8 3.83-5.13 3.33" fill="#CE599E"/>
        <path d="M83.53 271.02L26.8 259c-2.2-.48-4.35.92-4.82 3.1l-7 33 .05.1c2.85-6.36 8.27-11.53 14.76-14.07 2.34-.92 5.08-1.5 7.33-.34 2.13 1.07 3.36 3.45 5.45 4.6 2.78 1.55 6.2.56 9.24-.4 3.02-.98 6.53-1.85 9.2-.13 1.18.75 2.04 1.93 3.2 2.7 2.2 1.5 5.12 1.3 7.75.88 4.14-.66 8.3-1.73 12.44-2.1l2.25-10.52a4.04 4.04 0 0 0-3.12-4.8" fill="#1B0042"/>
        <path d="M84.03 288.18l-64.67-13.72 2.9-13.64c.3-1.48 1.76-2.42 3.23-2.1L84.8 271.3c1.47.3 2.42 1.76 2.1 3.23L84 288.18z" fill="#CE599E"/>
        <path d="M51.53 288.15l-2.46-.53c-.98-.2-1.6-1.17-1.4-2.15l1.6-7.48c.2-1 1.16-1.62 2.14-1.4l2.47.52c.98.2 1.6 1.17 1.4 2.14l-1.6 7.5c-.2.97-1.16 1.6-2.14 1.4" fill="#FCE3D9"/>
        <path d="M62.27 144.77l58.9-11.2" stroke="#CE599E" stroke-width="1.17" stroke-linecap="round"/>
        <g transform="translate(61.176 120.046)">
          <mask id="j" fill="#fff">
            <use xlink:href="#i"/>
          </mask>
          <path d="M41.43 16.94l-3.88-9.17C35.25 2.3 29.37-.7 23.6.63l-7.14 1.64c-3.1.7-6.1 1.85-8.9 3.38C2.87 8.2.02 13.3.27 18.6l.3 6.15c0 .15.07.3.2.38.08.07.2.1.3.1h.1l39.87-7.58c.16-.03.3-.12.36-.26.1-.15.1-.3.03-.46" fill="#373867" mask="url(#j)"/>
        </g>
        <g transform="translate(61.176 120.046)">
          <mask id="l" fill="#fff">
            <use xlink:href="#k"/>
          </mask>
          <path d="M41.43 16.94l-3.88-9.17C35.25 2.3 29.37-.7 23.6.63l-7.14 1.64c-3.1.7-6.1 1.85-8.9 3.38C2.87 8.2.02 13.3.27 18.6l.3 6.15c0 .15.07.3.2.38.08.07.2.1.3.1h.1l39.87-7.58c.16-.03.3-.12.36-.26.1-.15.1-.3.03-.46" fill="#373867" mask="url(#l)"/>
        </g>
        <path d="M92.28 139.06l28.9-5.5" stroke="#FFEDD5" stroke-width="1.17" stroke-linecap="round"/>
        <path d="M71.12 139.34c.08-1.84-.06-3.8-1.08-5.32-.47-.7-1.12-1.32-1.32-2.14-.24-1 .25-2 .78-2.88 1.44-2.33 3.34-4.37 5.55-5.98-2.2.68-4.3 1.58-6.33 2.68-4.66 2.55-7.52 7.64-7.26 12.96l.3 6.13c0 .14.07.28.2.38.08.07.2.1.3.1h.1l8.18-1.56c.3-1.44.5-2.9.58-4.38m-17.9 98.97l40.25-8.15-.15-1.6c-3.54 0-7.1.58-10.6 1.16l-18.14 3.02c-1.07.18-2.2.35-3.23-.02-.62-.22-1.17-.63-1.8-.8-1.97-.48-3.58 1.47-5.3 2.54-.25.16-.54.3-.84.28-.84-.07-.98-1.26-.86-2.1l.5-3.62c.14-.93 0-2.2-.9-2.32-.4-.04-.75.16-1.08.35l-3.64 2.16c-1.45-1.4-1.3-3.72-1-5.7.96-6.5 2.3-12.95 4-19.3l-.3.04-6.8 23.3c-1.8 6.17 3.6 12.04 9.9 10.76" fill="#1B0042"/>
        <path d="M102.4 209l1.35-.38c1-.28 2.02.25 2.38 1.2.23.65.12 1.36-.3 1.9l-1.42 1.82 1.13 8.9c.22 1.72-.37 3.46-1.6 4.7l-1.53 1.57a5.619 5.619 0 0 1-4 1.7l-3.57.03a5.099 5.099 0 0 1-5-3.86l-.98-3.88c-.4-1.6-.02-3.3 1.03-4.55l1.86-2.23c2.78-3.32 6.5-5.72 10.66-6.9" fill="#6C4170"/>
        <path d="M104.13 208.56c-1.9.9-3.6 2.23-4.95 3.87-.22.27-.42.7-.14.93.16.12.4.08.6.02 1.28-.34 2.57-.7 3.86-1.03l-1.82 2.87c-.2.3-.4.66-.32 1 .15.77 1.26.8 1.77 1.37.82.93-.4 2.4-.08 3.6.22.86 1.16 1.36 1.43 2.2.28.83-.17 1.7-.32 2.58-.05.32-.06.64-.03.96 1.1-1.23 1.6-2.87 1.4-4.5l-1.12-8.9 1.43-1.83c.42-.52.53-1.23.3-1.87-.3-.84-1.14-1.34-2-1.27" fill="#CE599E"/>
        <path d="M83 145.76l19.66-3.5m-.22-1.56l.94 6.92" stroke="#1B0042" stroke-width="1.17" stroke-linecap="round"/>
        <path d="M98.73 127.82c-.8-1.87-2-3.45-3.47-4.67a6.568 6.568 0 0 0-1.22 3.83c0 3.64 2.95 6.6 6.58 6.6.18 0 .36-.02.53-.03l-2.42-5.73z" fill="#FCE3D9"/>
    </g>

    <g class="animation-hero-right">
        <path d="M575.2 16.43c-.2 0-.4.04-.58.13l-.75 1.4c.4.44.7.98.82 1.57.03.2.06.44.03.66-.04.24-.14.48-.25.7-.18.36-.4.7-.64 1-.2.27-.44.52-.67.77.6-.28 1.18-.57 1.76-.87.25-.12.5-.26.68-.47.35-.4.35-1 .3-1.52-.1-1.14-.34-2.28-.7-3.37" fill="#FCE3D9"/>
        <g transform="translate(557.588 7.844)">
          <mask id="n" fill="#fff">
            <use xlink:href="#m"/>
          </mask>
          <path d="M.16 13.68C2.4 9.5 5.04 5.54 8.06 1.9c.4-.5.8-.97 1.35-1.3 1.06-.62 2.36-.54 3.57-.43 1.2.1 2.4.22 3.45.8 1.77.96 2.63 3 3.3 4.9.35 1 .68 2.1.32 3.07-.36 1-1.3 1.6-2.2 2.16-4.55 2.86-8.9 6.02-13.02 9.47-.22.18-.46.37-.74.35-.28-.02-.48-.24-.66-.45-1.27-1.5-2.37-3.15-3.25-4.9" fill="#CE599E" mask="url(#n)"/>
        </g>
        <path d="M564.47 25.73c3.63-.88 7.15-2.2 10.46-3.93.25-.13.5-.26.67-.47.35-.4.35-1 .3-1.52-.16-1.87-.7-3.7-1.57-5.38-.15-.3-.36-.6-.68-.64-.2-.03-.4.06-.57.15-3.9 1.9-7.18 5.1-9.17 9" fill="#CE599E"/>
        <path d="M433.82 19.8l-10.26.24c-6.1.14-11.2 4.63-12.13 10.67l-1.14 7.47a35.5 35.5 0 0 0-.14 9.82c.68 5.43 4.47 10.1 9.66 11.86l6 2.05c.14.06.3.04.43-.04.1-.06.2-.15.23-.26l.03-.1 7.85-41.07c.03-.15 0-.32-.1-.44a.581.581 0 0 0-.43-.2" fill="#6C4170"/>
        <path d="M431.9 30.48L437.57.7" stroke="#FFEDD5" stroke-width="1.2" stroke-linecap="round"/>
        <path d="M424.13 50.87c-1.73-.78-3.65-1.4-5.5-1-.85.2-1.7.6-2.55.47-1.04-.15-1.83-1-2.46-1.84-1.7-2.26-2.92-4.85-3.64-7.58-.17 2.35-.1 4.72.18 7.07.68 5.43 4.47 10.1 9.66 11.86l6 2.05c.14.06.3.04.43-.04.1-.06.2-.15.23-.26l.03-.1 1.62-8.42c-1.27-.84-2.6-1.6-4-2.2" fill="#1B0042"/>
        <path fill="#6C4170" d="M489.38 73.7l71.6-55.86 5.26 6.53-60.62 66.03"/>
        <path d="M561 17.84L489.37 73.7l10.8 11.12c4.64-10 12.28-18.55 21.14-25.18 5-3.72 10.44-6.96 14.6-11.6 3.53-3.93 5.97-8.7 9.13-12.95 4.66-6.26 10.78-11.2 16.7-16.3l-.76-.96zM283.1 233.17c9.16-12.4 21.4-22.47 35.3-29.1 4.97-2.36 10.7-4.3 15.88-2.46 3.65 1.3 6.5 4.34 10.16 5.6 5 1.72 10.5-.13 15.1-2.74 10.92-6.2 18.97-16.46 29.3-23.65 11.04-7.7 24.64-11.66 38.1-11.1 1.6.06 3.28.18 4.8-.37 1.7-.62 3.02-2.02 4.25-3.38a771.67 771.67 0 0 0 40.58-48.6c3.6-4.7 7.2-9.5 9.65-14.9l-5.3-27.95L458.4 70l-25.26 11.3-52.7 70.26-67.57 29.86-27.22 30.36-2.56 21.37z" fill="#1B0042"/>
        <path d="M432.24 234.28l4.78 34.78 2.1-.58c3.1-.85 5.14-3.83 4.8-7.02-.16-1.35.12-2.7.77-3.88l9.94-18.07-8.44-7.25-13.96 2.03z" fill="#FCE3D9"/>
        <path d="M432.24 234.28l4.78 34.78 2.1-.58c3.1-.85 5.14-3.83 4.8-7.02-.16-1.35.12-2.7.77-3.88l9.94-18.07-8.44-7.25-13.96 2.03zm-115.22 26.99l-5.7 34.58 2.06-.06c3.05-.1 5.58-2.4 5.97-5.4.17-1.28.72-2.46 1.58-3.4L335 271.77l-6.9-8.62-11.08-1.9z" fill="#FCE3D9"/>
        <path d="M460.88 161.95l-48.2 47.54c-7.6 7.48-15.58 14.55-23.93 21.17L335 271.77l-7.3-8.64 53.6-52.4 42-56.4 37.58 7.62z" fill="#CE599E"/>
        <path d="M437.58 166.6l-4.97-10.38-9.3-1.88-42 56.4-53.6 52.4.5.6c.97-.94 1.97-1.85 3-2.72 8.55-7.23 19.15-12.06 26.5-20.5 5.2-5.96 8.72-13.63 15.4-17.88 7.5-4.78 17.73-4.27 24.67-9.88 7.53-6.1 8.5-17 12.6-25.77 5.03-10.68 15.56-18.57 27.2-20.4" fill="#1B0042"/>
        <path d="M467.2 76.05l14.96-3.62c3.07-.74 6.28-.72 9.34.05l3.15.8c3.52.9 6.73 2.76 9.25 5.38 2.57 2.68 4.33 6.04 5.05 9.68l1.62 8.14c1.4 7-.57 14.25-5.3 19.6l-.92 1.06c-.75.84-1.56 1.63-2.42 2.36l-34.4 28.97-31.84-12.53 18.2-26.76-1.68-23.16 1.52-1.77c3.52-4.07 8.22-6.94 13.45-8.2" fill="#6C4170"/>
        <path d="M468.54 122.7c.4-.34.44-.9.46-1.43.28-6.48-.2-13.14 1.9-19.27 1.65-4.72 4.72-8.78 7.22-13.1 2.5-4.34 4.48-9.32 3.6-14.24-.12-.68-.3-1.34-.53-2l-14 3.4a25.624 25.624 0 0 0-13.46 8.2L452.22 86l1.68 23.16-18.2 26.76 11.6 4.58c-.13-3.7.54-7.4 1.97-10.8.25-.62.7-1.32 1.35-1.25.38.03.68.33.93.6 2.1 2.4 3.53 5.67 6.45 6.95.37.16.8.28 1.18.17.8-.26.95-1.3.93-2.13-.15-6.36-2.24-12.94-.1-18.93 2.72-2.46 3.8 4.8 6.02 6.9.7.65 1.8 1.3 2.52.67" fill="#1B0042"/>
        <path d="M502.34 146.25l-27.46-5.72a3.548 3.548 0 0 1-2.76-4.2l9.4-45.2c.4-1.92 2.3-3.16 4.2-2.76l27.48 5.72a3.55 3.55 0 0 1 2.76 4.2l-9.4 45.2c-.4 1.9-2.3 3.15-4.22 2.75m7.63-102.04c4.03 7.68 1.07 17.18-6.62 21.2-7.68 4.04-17.18 1.08-21.2-6.6-4.04-7.7-1.08-17.2 6.6-21.22 7.7-4.03 17.2-1.06 21.22 6.62" fill="#FCE3D9"/>
        <path d="M491.35 52.78c1.46 3.22 3.66 6.15 6.57 8.16 3.4 2.33 7.57 3.3 11.68 3.4 4.1.1 8.2-.6 12.23-1.34.84-.16 1.72-.34 2.37-.9.53-.46.84-1.16.83-1.86-.02-1.23-.96-2.28-1.12-3.5-.1-.88.13-1.93-.53-2.5-.22-.18-.5-.3-.63-.54-.16-.3-.03-.65-.04-.98-.02-.56-.46-1.03-.94-1.33-.48-.3-1.02-.5-1.48-.82-.2-.14-.4-.32-.47-.56-.2-.62.48-1.18.57-1.83.14-.98-.96-1.6-1.88-1.94l-2.57-.93c-.7-.26-1.48-.57-1.87-1.23-.4-.7-.25-1.62-.52-2.4-.22-.6-.67-1.08-1.14-1.52-3.3-3.12-7.57-5.1-12.04-5.82-8.78-1.38-15.7 6.33-15.7 6.33l6.7 12.08z" fill="#FCE3D9"/>
        <path d="M517.18 49.4c0 .25.07.52.2.74.16.22.38.4.65.44.23.04.48-.03.7-.14.2-.12.38-.3.55-.45-.08.3-.2.6-.32.88-.04.08-.08.16-.14.23-.1.12-.23.17-.38.2-.48.1-1-.18-1.25-.6-.26-.44-.24-1 0-1.44" fill="#F0BABC"/>
        <path d="M520.3 63.28c-9.6 2.08-20.5 21.43-20.5 21.43l-18.53-8.42 13.33-18.36 25.7 5.36z" fill="#FCE3D9"/>
        <path d="M500.27 68.67c-.64-.66-1.66-.7-2.58-.77-2.76-.17-5.5-.77-8.05-1.77-2.55-1-5.25-2.42-7.87-1.64-2.02.6-3.5 2.4-5.53 2.97-1.35.4-2.82.18-4.13-.33-1.4-.54-2.73-1.42-4.22-1.46-1-.02-1.98.34-2.87.8-.98.5-1.9 1.13-2.74 1.85 7.23.37 14.33 2.37 20.57 5.93 5-1.17 17.46.84 17.97-3.08.12-.88.06-1.88-.57-2.5" fill="#FCE3D9"/>
        <path d="M523.9 56.73c-.1-.87.13-1.92-.53-2.5-.22-.17-.5-.28-.63-.53-.16-.3-.03-.65-.04-.98-.02-.56-.46-1.03-.94-1.33-.48-.3-1.02-.5-1.48-.82-.2-.14-.4-.32-.47-.56-.2-.62.48-1.18.57-1.83.14-.98-.96-1.6-1.88-1.94l-2.57-.93c-.7-.26-1.5-.57-1.87-1.23-.4-.7-.25-1.62-.52-2.4-.22-.6-.67-1.08-1.14-1.52-3.3-3.12-7.57-5.1-12.04-5.8-8.78-1.4-15.7 6.3-15.7 6.3-4.5 4.76-5.72 12-2.52 18.1.4.78.85 1.5 1.35 2.16 2.66 3.56 2.8 8.4.18 12l-2.4 3.34 18.53 8.43s10.9-19.34 20.5-21.42c.5-.1 1.02-.2 1.53-.28.84-.16 1.72-.34 2.36-.9.53-.46.84-1.16.83-1.86-.02-1.23-.96-2.28-1.12-3.5" fill="#FCE3D9"/>
        <path d="M523.9 56.73c-.1-.87.13-1.92-.53-2.5-.22-.17-.5-.28-.63-.53-.16-.3-.03-.65-.04-.98-.02-.56-.46-1.03-.94-1.33-.48-.3-1.02-.5-1.48-.82-.2-.14-.4-.32-.47-.56-.2-.62.48-1.18.57-1.83.14-.98-.96-1.6-1.88-1.94l-2.57-.93c-.7-.26-1.5-.57-1.87-1.23-.4-.7-.25-1.62-.52-2.4-.22-.6-.67-1.08-1.14-1.52-3.3-3.12-7.57-5.1-12.04-5.8-8.78-1.4-15.7 6.3-15.7 6.3-4.5 4.76-5.72 12-2.52 18.1.4.78.85 1.5 1.35 2.16 2.66 3.56 2.8 8.4.18 12l-2.4 3.34 18.53 8.43s10.9-19.34 20.5-21.42c.5-.1 1.02-.2 1.53-.28.84-.16 1.72-.34 2.36-.9.53-.46.84-1.16.83-1.86-.02-1.23-.96-2.28-1.12-3.5" fill="#CE599E"/>
        <path d="M481.27 76.28l13 5.9c.64-1.82 1.12-3.7 1.44-5.6.55-3.32.38-7.22-2.23-9.32-1.24-1-3-1.6-3.5-3.1-.24-.72-.1-1.5.04-2.24.67-3.12 1.84-6.66 0-9.25-.8-1.1-2.03-1.83-2.82-2.92-1.73-2.37-.98-5.73.42-8.3 1.37-2.5 3.3-4.67 5.58-6.35-5.1 1.78-8.53 5.6-8.53 5.6-4.5 4.73-5.7 12-2.5 18.1.4.76.84 1.47 1.34 2.13 2.66 3.57 2.8 8.42.18 12.02l-2.4 3.33z" fill="#6C4170"/>
        <path d="M491.8 81.08c-10.9-10.98-27.42-15.04-42.5-11.65-15.07 3.4-28.2 13.17-37.75 25.33-11.92 15.2-18.8 34.12-32.27 47.96-14.78 15.2-35.9 22.52-56.73 26.38-6.07 1.12-12.27 2.02-17.9 4.55-10.4 4.67-17.86 14.64-21.17 25.55-3.32 10.92-2.85 22.7-.56 33.86 3.72-11.6 10.97-22.06 20.54-29.6 14.94-11.78 34.33-15.98 51.4-24.38 17.04-8.38 31.9-21.14 42.73-36.7 8.06-11.6 13.88-24.57 21.28-36.6 7.4-12 16.85-23.4 29.65-29.36 11.65-5.43 26.14-4.98 36.17 2.68 2 1.53 4.5 2.27 7 2l.1-.02z" fill="#FCE3D9"/>
        <path fill="#CE599E" d="M475.86 113.32h9.7v8.74h-9.7"/>
        <path d="M480.9 113.76c2.18-.75 3.67-2.7 5.5-4.1 1.68-1.25 3.66-2.03 5.3-3.3 1-.75 1.88-1.67 3-2.25.1-.05.2-.1.3-.1.38-.02.57.44.6.8.04 1.53-1.2 2.76-2.42 3.68-1.22.92-2.6 1.87-3 3.34-.2.77-.13 1.58.06 2.35.08.34.18.7.17 1.05 0 .8-.63 1.47-1.28 1.95-.75.55-1.6.96-2.5 1.18-.8.2-1.68.25-2.5.03-1.55-.42-2.67-1.75-3.7-3" fill="#CE599E"/>
        <path d="M490.85 110.32c-.26.5-.46 1.02-.58 1.56-.06.25-.1.53.05.73.14.2.4.27.65.3 1.06.2 2.12.3 3.2.35.38.02.78.03 1.1.24.5.32.63 1 .7 1.6.28 2.44.46 5.08-.75 7.23-.27.47-.63.93-1.14 1.1-.28.1-.58.1-.88.08-3.18-.05-6.45-.2-9.37-1.47-.28-.12-.57-.26-.82-.46-.55-.46-.82-1.2-.95-1.92-.16-.92-.12-1.9.2-2.78.5-1.38 1.6-2.44 2.75-3.35 1.15-.9 2.4-1.75 3.3-2.9" fill="#CE599E"/>
        <path d="M493.1 113.2c3.1.2 6.2-.64 9.32-.92 1.4-.13 2.9-.14 4.17.45.2.1.43.26.43.5 0 .1-.07.23-.15.33-.4.46-1 .68-1.57.83-3.76 1.03-7.68.82-11.37 2.12-.1.03-.22.07-.3.02-.07-.03-.1-.08-.14-.13-.14-.18-.43-.5-.56-.7m1.9.77c4.18-.23 8.75-.46 12.94.7.33.1.67.2.94.45.28.23.47.6.4.97-.07.3-.32.55-.6.68-.3.13-.6.15-.9.17-4.25.26-8.5-.26-12.76-.08-.5.02-1 .05-1.48.04-.17 0-.34 0-.46-.13-.16-.17-.12-.47 0-.68.12-.22.3-.38.42-.6" fill="#CE599E"/>
        <path d="M494.9 119.25c3.6.82 7.3.8 10.88 1.76.3.1.58.18.84.37.25.2.45.52.47.9 0 .42-.26.82-.57 1-.32.2-.68.23-1.03.24-1.22.04-2.44-.17-3.65-.37l-7.82-1.32c-.36-.06-.73-.12-1.05-.33" fill="#CE599E"/>
        <path d="M493.75 121.78l3.12.74c1.75.42 3.54 1.22 5.2 1.88.24.1.47.2.65.36.18.17.28.43.2.66-.1.28-.4.4-.7.48-1.05.23-2.12-.03-3.15-.3l-8.23-2.04c-.37-.1-.74-.2-1.08-.35-.07-.02-.15-.06-.18-.13-.02-.07 0-.14.03-.2.13-.3.35-.55.63-.72" fill="#CE599E"/>
        <path d="M452.22 86.02l-17.1 32.2c-2.16 4.05 1.12 8.85 5.67 8.3l38.08-4.45.95-9.07-22.12-1.75 9.92-16.54c2.86-4.77.64-10.98-4.6-12.86a8.85 8.85 0 0 0-10.8 4.18" fill="#6C4170"/>
        <path d="M479.83 113l-22.12-1.75 9.92-16.54c1.7-2.83 1.6-6.18.15-8.82.72 2.94.16 6.2-1.65 8.66-1.4 1.9-3.43 3.28-4.72 5.25-1.43 2.17-1.84 4.9-3.2 7.13-1.4 2.34-3.78 4.06-4.77 6.6-.13.36-.23.8 0 1.1.1.15.27.25.45.33 2.1.93 4.5-.23 6.78-.48 1.75-.2 3.5.16 5.27.3 2.7.18 5.4-.17 8.06-.55 1.93-.27 3.86-.56 5.8-.86l.03-.37z" fill="#CE599E"/>
        <path d="M498.78 168.06l-35.3-22.12-27.8-10-.06.1c-8.68.88-15.44 8.22-15.44 17.13 0 7.93 5.34 14.65 12.64 16.62 3.33.9 45.26 9.56 45.26 9.56l-32.8 53.37 9.36 6.78 46.82-54.2c4.55-5.36 3.28-13.5-2.68-17.24" fill="#603966"/>
        <path d="M498.78 168.06l-35.3-22.12-27.8-10-.06.1c-8.68.88-15.44 8.22-15.44 17.13 0 7.93 5.34 14.65 12.64 16.62 3.33.9 45.26 9.56 45.26 9.56l-32.8 53.37 9.36 6.78 46.82-54.2c4.55-5.36 3.28-13.5-2.68-17.24" fill="#CE599E"/>
        <path d="M436.28 161.37c-.53-4.72 1.75-9.52 5.4-12.55 3.66-3.02 8.53-4.36 13.28-4.24 3.26.1 6.47.83 9.53 2l-1.02-.64-27.8-10-.06.1c-8.68.88-15.45 8.22-15.45 17.13 0 7.93 5.35 14.65 12.65 16.62.92.24 4.77 1.07 9.86 2.16-3.35-2.76-5.92-6.35-6.4-10.6" fill="#CE599E"/>
        <path d="M436.28 161.37c-.53-4.72 1.75-9.52 5.4-12.55 3.66-3.02 8.53-4.36 13.28-4.24 3.26.1 6.47.83 9.53 2l-1.02-.64-27.8-10-.06.1c-8.68.88-15.45 8.22-15.45 17.13 0 7.93 5.35 14.65 12.65 16.62.92.24 4.77 1.07 9.86 2.16-3.35-2.76-5.92-6.35-6.4-10.6" fill="#FCE3D9"/>
        <path d="M477.57 195.13c1.85-4.45 3.53-9.84 8.1-11.36 1.78-.6 4.2-.84 4.6-2.67.15-.62-.03-1.27-.3-1.85-2.28-4.77-9.4-3.9-13.88-6.7-2.46-1.53-4.04-4.13-6.22-6.02-5.3-4.58-13.13-4.28-20.1-3.58-6.97.7-14.66 1.38-20.36-2.7-6.5-4.66-7.26-15.2-2.06-21.07-4.35 3.13-7.18 8.23-7.18 14 0 7.92 5.34 14.64 12.64 16.6 3.33.9 45.26 9.57 45.26 9.57l-32.8 53.38 4.46 3.23c6.06-8.2 12.03-16.46 18-24.73 3.67-5.1 7.4-10.28 9.83-16.1" fill="#1B0042"/>
        <path d="M432.82 169.8c.92.24 4.77 1.07 9.86 2.16-2.9-2.38-5.2-5.38-6.08-8.87-2.58-.45-5.02-1.3-7.18-2.85-6.5-4.66-7.26-15.2-2.06-21.07-4.35 3.13-7.2 8.23-7.2 14 0 7.92 5.36 14.64 12.66 16.6" fill="#603966"/>
        <path d="M497.65 61.4c.1-.68-.1-1.37-.6-1.85-4.38-4.4.54-6.46.54-6.46l2.7 3.1 1.4-1.08-.66-.95c-.46-.67-.53-1.52-.18-2.25l2.4-5.07c.44-.9.3-1.95-.37-2.68l-.18-.2c-.95-1.05-.8-2.68.32-3.55l4.85-3.76a23.61 23.61 0 0 0-7.47-2.5c-8.88-1.4-15.9 6.4-15.9 6.4-4.54 4.8-5.77 12.14-2.53 18.32.4.77.86 1.5 1.37 2.16 1.82 2.43 2.48 5.46 1.9 8.3.95.07 2.24.16 3.65.2 4.22.1 7.88-2.9 8.56-7.07l.17-1.07z" fill="#373867"/>
        <path d="M488.92 69.54c1.93.05 3.75-.56 5.22-1.63-.2-.22-.43-.44-.67-.64-1.24-1-3-1.6-3.5-3.1-.24-.72-.1-1.5.04-2.24.68-3.12 1.84-6.66 0-9.25-.8-1.1-2.03-1.83-2.82-2.92-1.73-2.37-.98-5.73.42-8.3 1.47-2.67 3.58-5 6.1-6.72-5.45 1.7-9.16 5.83-9.16 5.83-4.54 4.8-5.78 12.14-2.54 18.32.4.77.86 1.5 1.37 2.16 1.82 2.43 2.47 5.46 1.9 8.3.95.07 2.24.16 3.65.2" fill="#1B0042"/>
        <path d="M574 8.8c-1.03-.56-2.26-.68-3.44-.8-.85-.06-1.74-.13-2.56.06.2.28.56.5.9.6.6.2 1.36.37 1.56.98.18.54-.23 1.13-.16 1.7.12.93 1.3 1.24 2 1.88.8.75.9 1.98 1.44 2.93.48.84 2.18-.44 3.15 1.14.07.13-.7 1.14-.7 1.14.62-.44 1.18-.96 1.43-1.66.36-.98.02-2.07-.32-3.06-.66-1.9-1.52-3.94-3.3-4.9" fill="#FCE3D9"/>
        <path d="M457.36 27.27L445.18 39.2a5.835 5.835 0 0 0-1.75 4.16v1.82M472 33.2l-12.24 12c-1.06 1.05-1.6 2.5-1.43 3.98l.23 2.15" stroke="#1B0042" stroke-width="1.17" stroke-linecap="round"/>
        <path d="M463.7 29.68l.54 1.13c.4.83-.43 1.7-1.27 1.35l-2.44-1a4.583 4.583 0 0 1-2.37-2.24l-.8-1.63L472.32 33" stroke="#1B0042" stroke-width="1.17" stroke-linecap="round" stroke-linejoin="round"/>
        <path d="M472.06 33.14l.55 1.13c.4.8-.42 1.7-1.26 1.34l-2.43-1a4.564 4.564 0 0 1-2.37-2.23l-.8-1.64" stroke="#1B0042" stroke-width="1.17" stroke-linecap="round" stroke-linejoin="round"/>
        <path d="M431.86 19.85l-8.3.2c-1.36.02-2.66.27-3.88.7a6.567 6.567 0 0 0 5.9 3.67c2.94 0 5.43-1.92 6.28-4.57m93.02 41.25c.1-.28.15-.57.15-.86-.02-1.23-.96-2.28-1.12-3.5-.1-.88.13-1.93-.53-2.5-.22-.18-.5-.3-.63-.54-.16-.3-.03-.65-.04-.98-.02-.56-.46-1.03-.94-1.33-.48-.3-1.02-.5-1.48-.82-.2-.14-.4-.32-.47-.56-.2-.62.48-1.18.57-1.83.14-.98-.97-1.6-1.88-1.94-.87-.3-1.72-.62-2.57-.93-.7-.26-1.48-.57-1.87-1.23-.42-.7-.25-1.62-.52-2.4-.22-.6-.68-1.08-1.14-1.52-2.9-2.76-6.6-4.64-10.52-5.52 1.07.3 2.1.67 3.1 1.17 2.98 1.48 5.4 4 6.88 6.98.43.88.8 1.83 1.54 2.48 1.42 1.27 3.9 1.13 4.93 2.74.7 1.1.44 2.6 1.12 3.73.7 1.15 2.26 1.6 2.9 2.8.3.58.35 1.27.56 1.9.3.88.9 1.62 1.3 2.45.35.7.55 1.44.68 2.2" fill="#FCE3D9"/>
        <path d="M499.08 34.02c2.04.38 4.05.9 5.9 1.8.8.4 1.53.85 2.22 1.37l.7-.54a23.61 23.61 0 0 0-7.47-2.5c-.46-.07-.9-.1-1.35-.14" fill="#6C4170"/>
    </g>
  </g>
</svg>