<svg width="40" height="40" xmlns="http://www.w3.org/2000/svg"><g fill="none"><rect stroke="#FFF" x=".5" y=".5" width="39" height="39" rx="19.5"/><path d="M27.088 14.576l-2.513-2.513a2.373 2.373 0 0 0-1.688-.7c-.639 0-1.238.249-1.689.7l-3.33 3.329a2.38 2.38 0 0 0-.693 1.788 2.382 2.382 0 0 0-1.788.694l-3.329 3.328a2.392 2.392 0 0 0 0 3.378l2.513 2.513c.451.451 1.05.7 1.689.7.638 0 1.238-.249 1.688-.7l3.33-3.329c.49-.49.72-1.143.693-1.788.033.001.066.005.1.005.61 0 1.222-.233 1.688-.698l3.33-3.33c.93-.93.93-2.446 0-3.377zm-.864 2.513l-3.33 3.329a1.166 1.166 0 0 1-1.446.158 2.427 2.427 0 0 0-.17-.19l-.377-.376a.611.611 0 0 0-1.04.466.607.607 0 0 0 .175.461l.346.345c.06.061.124.118.19.17.285.45.233 1.055-.16 1.447l-3.328 3.33c-.22.219-.513.34-.824.34-.311 0-.604-.121-.824-.341l-2.513-2.513a1.167 1.167 0 0 1 0-1.648l3.329-3.329a1.166 1.166 0 0 1 1.447-.158c.053.065.109.129.17.19l.377.376a.611.611 0 0 0 1.04-.466.607.607 0 0 0-.176-.461l-.345-.345a2.374 2.374 0 0 0-.19-.17 1.166 1.166 0 0 1 .158-1.447l3.33-3.33c.22-.219.512-.34.823-.34.311 0 .604.121.824.341l2.513 2.513c.455.454.454 1.193 0 1.648zm-3.66-1.367l-6.847 6.847a.611.611 0 1 0 .865.865l6.848-6.847a.611.611 0 1 0-.865-.865z" fill="#FFF"/></g></svg>