<svg width="580" height="482" viewBox="0 0 580 482" xmlns="http://www.w3.org/2000/svg" xmlns:xlink="http://www.w3.org/1999/xlink" preserveAspectRatio="xMinYMin slice">
  <defs>
	<path id="a" d="M31.736.318v37.347H.686V.318h31.05z"/>
	<path id="c" d="M59.55.952h59.514v119.03H.034V.952z"/>
  </defs>
  <g fill="none" fill-rule="evenodd">
	<g class="animation-moon-left">
		<path d="M65.949 243.898l63.368 13.543c-7.273-53.178-7.45-56.03-9.42-63.46-.803-3.032-1.904-4.898-5.167-5.553-2.843-.571-5.864-.432-8.742-.327-5.5.2-10.99.692-16.468 1.184-5.477.49-10.95 1.02-16.421 1.557-3.083.3-6.185.657-9.256.85-3.224.205-5.888 1.977-8.432 3.828L50.622 199c-1.404 1.018-2.843 2.076-3.762 3.549-.92 1.474-1.205 3.478-.233 4.916.93 1.379 2.693 1.873 4.31 2.262 5.707 1.373 11.461 2.668 16.915 4.842 12.009 4.782 22.244 13.886 28.393 25.257l-30.296 4.072z" fill="#FCB094"/>
		<path d="M60.156 194.37c3.071-.195 6.171-.55 9.254-.853a2061.75 2061.75 0 0 1 16.422-1.556c5.48-.492 10.97-.986 16.47-1.184 2.877-.104 5.898-.245 8.741.327 3.263.657 4.362 2.52 5.168 5.553 1.924 7.26 2.138 10.156 8.932 59.89l4.174.893c-7.273-53.178-7.45-56.03-9.42-63.459-.803-3.032-1.904-4.897-5.167-5.552-2.843-.574-5.864-.432-8.742-.328-5.5.2-10.99.692-16.468 1.183-5.477.491-10.95 1.022-16.421 1.557-3.083.301-6.185.657-9.256.852-3.224.205-5.888 1.977-8.432 3.826l-3.128 2.273c2.377-1.696 4.885-3.233 7.873-3.423m31.248 46.107L65.948 243.9l6.264 1.339 20.346-2.738a55.66 55.66 0 0 0-1.154-2.025" fill="#FFEDD5"/>
		<path d="M105.45 199.964l12.53-9.927c-.761-.776-1.788-1.315-3.25-1.609-2.843-.572-5.864-.432-8.743-.327-5.498.199-10.99.693-16.468 1.184-5.476.49-10.95 1.022-16.421 1.557-3.083.3-6.184.656-9.255.85-3.223.206-5.89 1.978-8.432 3.826a8564.287 8564.287 0 0 1-4.789 3.48c-1.405 1.02-2.843 2.079-3.762 3.551-.92 1.473-1.205 3.478-.233 4.916.93 1.379 2.694 1.873 4.31 2.262 2.27.547 4.547 1.083 6.81 1.665l30.636-4.663 17.068-6.765z" fill="#6C4170"/>
		<path d="M52.284 197.792c2.376-1.697 4.884-3.233 7.872-3.423 4.509-.287 9.609-.969 25.677-2.408 20.691-1.855 26.137-1.81 28.59.892l3.558-2.815c-2.944-3.001-9.58-2.649-44.883.805-13.231 1.292-11.198-.043-20.814 6.949" fill="#EB5E5B"/>
		<path d="M119.733 265.126c-7.273-53.177-7.45-56.03-9.42-63.46-2.022-7.628-3.397-6.47-60.323-.854-3.521.347-4.672 1.524-3.84 5.443a1815.461 1815.461 0 0 0 10.214 45.33l63.37 13.541z" fill="#1B0042"/>
		<path d="M50.253 246.696c-2.881 1.22-4.795 4.12-5.537 7.16-.74 3.04-.468 6.231-.031 9.33 3.435 24.35 16.71 47.113 16.156 71.7-.223 9.96-1.794 16.707 12.624 24.947 10.884 6.221 18.17 7.262 33.963-.244 16.935-8.046 24.86-17.117 20.874-35.788-1.356-6.35-3.767-12.427-5.363-18.72-5.411-21.358-1.387-42.714-9.861-54.329-4.274-5.856-11.402-9.049-18.538-10.327-13.319-2.386-31.19 2.87-44.287 6.27m16.608 194.974c2.406 11.277 1.383 14.55-6.418 23.064-2.21 2.412-3.162 3.711-3.306 7.662-.178 4.89 1.4 7.555 7.855 8.579 15.429 2.447 20.74-4.568 26.41-13.92 3.759-6.2 4.108-8.455 3.201-14.285-.801-5.147-3.233-15.252-3.233-20.89l-24.509 9.79z" fill="#EB5E5B"/>
		<path d="M60.686 341.285c-4.703 32.653-.926 68.273 5.88 100.552.82 3.891 1.713 7.877 3.906 11.195 4.88 7.384 13.858 7.424 18.012-.801 6.188-12.25-.127-50.907 4.15-77.038 1.643-10.042 3.827-17.747-2.959-26.356-9.726-12.34-28.004-16.121-28.99-7.552" fill="#EB5E5B"/>
		<path d="M60.686 341.285c-4.703 32.653-.926 68.273 5.88 100.552.82 3.891 1.713 7.877 3.906 11.195 4.88 7.384 13.858 7.424 18.012-.801 6.188-12.25-.127-50.907 4.15-77.038 1.643-10.042 3.827-17.747-2.959-26.356-9.726-12.34-28.004-16.121-28.99-7.552" fill="#EB5E5B"/>
		<path d="M91.402 467.054c3.758-6.2 4.11-8.454 3.2-14.283-.8-5.15-3.23-15.257-3.23-20.894.214-16.94-1.547-39.515 1.261-56.683.632-3.861 1.342-7.376 1.592-10.73-1.475 1.497-2.534 3.423-3.415 5.356-3.451 7.573-4.86 15.933-5.324 24.242-.919 16.513 1.764 32.993 2.536 49.513.491 10.523.123 21.348-2.325 31.532 2.096-2.287 3.883-5.047 5.705-8.053" fill="#FFEDD5"/>
		<path d="M58.594 303.443s-19.388 18.578 0 25.534" stroke="#373867" stroke-width="2.92"/>
		<path d="M44.717 253.857c-.741 3.04-.47 6.232-.031 9.331 3.435 24.349 16.71 47.113 16.156 71.696-.051 2.289-.173 4.406-.157 6.41-4.702 32.651-.925 68.268 5.882 100.541.36 1.709.734 3.436 1.225 5.116.902 7.307-.921 10.768-7.348 17.78-2.21 2.414-3.163 3.714-3.307 7.663-.178 4.892 1.401 7.557 7.854 8.58 2.126.337 4.052.488 5.82.485-.873-5.243-1.25-10.384 1.285-15.391 5.515-10.895 6.737-13.605 4.077-27.87-5.53-29.656-10.933-61.138-.053-89.276 2.966-7.67 7.143-15.099 7.775-23.3.417-5.389-.74-10.763-1.887-16.043-10.95-50.357-11.574-57.669-18.301-65.976l-.587-.222c-4.551 1.1-8.926 2.29-12.866 3.315-2.883 1.22-4.795 4.12-5.537 7.16" fill="#6C4170"/>
		<path d="M49.813 249.967c-.836-.893-2.184-1.074-3.251-.476-14.887 8.329-20.33 27.492-27.009 40.788-4.255 8.476-21.121 31.564-18.66 39.12 1.24 3.813 14.004 3.972 19.09.112 2.018-1.53 3.282-3.82 4.56-6.006 9.596-16.445 24.977-33.478 28.729-42.41 2.46-5.856 2.578-12.447 1.788-18.747-.534-4.253-2.248-9.18-5.247-12.381" fill="#FCB094"/>
		<path d="M26.474 319.907c-4.626 9.619-1.288 23.656-2.54 26.733-2.05 5.038-9.81-7.841-7.862-16.825.786-3.618 3.475-7.011 7.113-7.697" fill="#FCB094"/>
		<path d="M53.271 281.095c.841-2.001 1.403-4.09 1.754-6.222-9.242 16.481-26.392 28.378-32.62 46.294-1.173 3.376-1.928 6.948-1.703 10.514.186 2.953 1.034 5.822 1.953 8.633a94.994 94.994 0 0 0 1.567 4.457c.183-4.745-1.532-15.374 1.675-23.528 9.63-15.725 23.795-31.625 27.374-40.148" fill="#FFEDD5"/>
		<path d="M17.717 334.774c-1.985.73-3.316 2.705-3.767 4.773-.915 4.176 1.19 8.357 1.413 12.524.112 2.119-1.134 2.81-2.15 1.846-8.253-7.816-10.332-29.131.174-26.713 3.838.883 5.153 3.613 4.737 5.611" fill="#FCB094"/>
		<path d="M3.053 328.74c-3.034 12.513 3.68 25.957 7.776 24.327.837-.334 1.33-1.243 1.438-2.139.11-.895-.094-1.795-.27-2.68-1.937-9.714.022-13.675-1.003-17.543-1.128-4.255-5.37-5.278-7.529-2.509" fill="#FCB094"/>
		<path d="M.715 326.943c-2.951 14.512 4.05 26.778 6.29 24.09.891-1.067.781-2.623.624-4.005-1.848-16.182-1.693-18.239-3.85-20.294-1.4-1.333-2.611-.715-2.9-.052m106.072-23.979c-2.145 1.723-4.693 2.866-6.983 4.393-5.66 3.78-8.549 9.409-8.538 10.189.048 3.58 12.42-1.392 16.618-4.39 6.356-4.537 7.756-14.164 5.12-15.25-1.638-.675-3.796 3.255-6.217 5.058" fill="#FCB094"/>
		<path d="M50.676 248.78c-5.59-6.847-9.591-21.447-6.49-33.371 1.933-7.433 6.736-14.275 13.575-17.77 3.377-1.725 7.122-2.603 10.864-3.211 22.374-3.632 32.133 5.23 36.203 24.105a109.639 109.639 0 0 1 2.452 24.638c-.024 1.719-.257 2.225-1.399 3.26-11.184 10.14-29.933 13.629-41.475 10.83-5.06-1.228-10.486-4.41-13.73-8.482" fill="#EB5E5B"/>
		<path d="M105.882 246.43c1.142-1.032 1.375-1.54 1.398-3.26a109.58 109.58 0 0 0-2.452-24.635c-3.11-14.417-9.543-22.984-22.373-24.612 8.539 2.35 13.104 6.716 16.233 13.183 3.356 6.93 5.282 17.87 5.247 25.572-.03 6.535 2.816 11.4 1.632 17.825 2.25-1.335-1.575-2.359.315-4.072" fill="#FCB094"/>
		<path d="M70.56 258.123c-6.137-7.028-11.47-14.905-14.547-23.716-3.048-8.731-3.763-18.454-.87-27.24 1.501-4.562 3.3-7.562 8.228-11.635-1.937.524-3.825 1.196-5.61 2.107-6.839 3.495-11.642 10.337-13.575 17.77-3.101 11.925.9 26.523 6.49 33.37 3.246 4.07 8.671 7.253 13.73 8.48 1.88.456 3.955.744 6.154.864" fill="#6C4170"/>
		<path d="M95.844 287.87l-1.897-17.992a1.536 1.536 0 0 0-1.64-1.37L66.22 270.43c-.497.036-.91.307-1.162.689l-.008.001-.031.06a1.41 1.41 0 0 0-.096.19l-1.162 2.283 1.462.872 2.58 14.734a1.537 1.537 0 0 0 1.571 1.27l21.317-.822 3.374 2.013 1.473-2.76-.002-.01c.227-.297.35-.675.308-1.08" fill="#FCB094"/>
		<path d="M127.092 319.271a104.421 104.421 0 0 1 7.45 28.942c.318 2.94.463 6.109-1.057 8.644-2.051 3.42-6.655 4.791-10.653 2.766-6.028-3.055-7.514-11.562-8.039-17.63-.974-11.27.933-15.3 7.956-23.944" fill="#EB5E5B"/>
		<path d="M62.082 418.136c4.57 3.885 12.379 5.478 21.695.757 2.63-1.333 5.065-2.995 7.405-4.795-.094-4.861-.182-9.85-.157-14.799-4.674-1.728-9.502-3.03-14.461-3.372-5.883-.405-12.003.647-17.05 3.621a357.3 357.3 0 0 0 2.568 18.588" fill="#6C4170"/>
		<path d="M62.082 418.136c4.57 3.885 12.379 5.478 21.695.757 2.63-1.333 5.065-2.995 7.405-4.795-.094-4.861-.182-9.85-.157-14.799-4.674-1.728-9.502-3.03-14.461-3.372-5.883-.405-12.003.647-17.05 3.621a357.3 357.3 0 0 0 2.568 18.588" fill="#6C4170"/>
		<path d="M91.117 410.549l-.004-.23a732.55 732.55 0 0 1-.052-3.443c-.001-.102-.003-.202-.003-.304a414.337 414.337 0 0 1-.03-3.401l-.001-.338a407.522 407.522 0 0 1-.002-3.366c.002-.056 0-.112 0-.167a66.911 66.911 0 0 0-5.675-1.832c-.184 6.728.169 13.451.682 20.175 1.787-1.069 3.493-2.27 5.15-3.543-.023-1.178-.046-2.362-.065-3.551" fill="#EB5E5B"/>
		<path d="M59.947 399.305a350.976 350.976 0 0 0 2.352 19.01c2.694 2.199 6.455 3.615 10.954 3.476-1.4-8.538-2.552-17.147-3.093-25.708-3.591.433-7.094 1.471-10.213 3.222" fill="#1B0042"/>
		<path d="M97.116 348.626c3.451-5.864 15.6-14.679 22.029-15.716 4.646-.75 9.336 2.016 12.023 5.88 8.023 11.538 2.207 28.128 8.385 100.385.209 2.446.409 5.008-.56 7.262-2.783 6.482-13.857 7.738-20.551-2.309-6.435-9.658-10.126-40.013-20.252-68.913-1.475-4.213-3.108-8.48-3.195-12.944-.072-3.716-.117-10.294 2.121-13.645" fill="#EB5E5B"/>
		<g transform="translate(115.216 432.465)">
		  <mask id="b" fill="#fff">
			<use xlink:href="#a"/>
		  </mask>
		  <path d="M.687 6.52C4.215 22.01 1.7 28.945 4.96 33.384c1.982 2.7 5.572 3.613 8.896 4.016 5.034.613 12.507.398 15.798-3.195 2.344-2.557 2.562-7.522 1.388-10.222-1.013-2.335-3.22-3.936-4.508-6.128-2.689-4.578-1.007-12.342-3.523-15.345-.595-.708-1.444-1.156-2.312-1.478C15.219-.988 5.054 1.49.944 5.743" fill="#EB5E5B" mask="url(#b)"/>
		</g>
		<path d="M97.116 348.626c3.451-5.864 15.6-14.679 22.029-15.716 4.646-.75 9.336 2.016 12.023 5.88 8.023 11.538 2.207 28.128 8.385 100.385.209 2.446.409 5.008-.56 7.262-2.783 6.482-13.857 7.738-20.551-2.309-6.435-9.658-10.126-40.013-20.252-68.913-1.475-4.213-3.108-8.48-3.195-12.944-.072-3.716-.117-10.294 2.121-13.645" fill="#EB5E5B"/>
		<path d="M146.258 456.446c-1.014-2.333-3.22-3.935-4.508-6.128-2.027-3.448-1.57-8.708-2.3-12.375-4.978-59.016-1.915-80.44-5.26-92.572a104.337 104.337 0 0 0-6.859-25.515c-1.357-4.951-3.13-9.794-4.391-14.776-3.585-14.148-3.032-28.296-4.71-39.61l-7.32 3.93a113.248 113.248 0 0 1 3.583 33.063c-.35 8.854-1.727 17.88.43 26.477 1.874 7.48 6.292 14.052 9.04 21.26 5.955 15.624 3.728 32.986 4.744 49.673.817 13.436 3.782 26.635 6.737 39.767.836 3.712 1.7 7.499 3.654 10.764 2.006 3.352 5.03 5.947 7.796 8.728-.094-1.003-.309-1.934-.636-2.686" fill="#FFEDD5"/>
		<path d="M140.8 469.114c1.442-16.656-12.287-8.543-15.418-28.704-.789-5.081-.524-10.26-.675-15.4-.607-20.683-7.92-40.507-15.146-59.897-4.105-11.014-9.705-8.017-12.752-4.42-1.208 1.426-1.398 1.638-1.69 3.45.557 4.542 2.02 8.067 3.07 11.072 8.726 24.9 12.672 50.878 17.714 63.77 3.528 15.49 1.013 22.424 4.273 26.866 1.982 2.699 5.57 3.61 8.896 4.015 3.474.422 8.107.45 11.728-.752" fill="#6C4170"/>
		<path d="M109.56 365.113c-4.103-11.013-9.704-8.018-12.751-4.42-1.208 1.426-1.397 1.637-1.69 3.452m41.408 23.425c-10.307-1.657-21.845.797-32.124 8.053 1.54 5.747 2.906 11.337 4.172 16.588 6.144 2.44 18.718 2.704 28.76-4.948a860.244 860.244 0 0 1-.808-19.692" fill="#6C4170"/>
		<path d="M137.02 400.744c-.011-.233-.022-.465-.031-.692-.023-.505-.044-1.004-.065-1.5-.01-.197-.017-.389-.025-.585-.073-1.76-.14-3.466-.198-5.117l-.004-.113-.057-1.64-.007-.238a831.19 831.19 0 0 1-.105-3.287 39.384 39.384 0 0 0-8.154-.45c.027 4.267.077 8.53.332 12.752.238 3.872.655 7.725 1.196 11.561a30.9 30.9 0 0 0 7.434-4.171l-.035-.654-.04-.83a842.507 842.507 0 0 1-.242-5.036" fill="#EB5E5B"/>
		<path d="M117.94 388.942c-4.61 1.402-9.186 3.61-13.537 6.682l.06.223c.113.42.222.84.334 1.26l.247.94c.112.425.222.848.331 1.27.08.305.158.61.236.913.11.428.219.852.326 1.277l.224.883.323 1.282.213.854.325 1.309.188.763.34 1.39c.05.203.1.405.148.608.127.52.253 1.036.376 1.55l.067.271.434 1.794c3.498 1.39 9.078 2.07 15.09.991-1.18-8.203-3.236-16.281-5.724-24.26" fill="#1B0042"/>
		<path d="M113.757 373.996c-.63.304-.617 1.192-.509 1.884 3.184 20.095 2.984 21.51 5.088 23.122 2.572 1.968 5.954.403 11.597-1.437 2.952-.961 5.67-1.84 8.885-4.008 2.882-1.942 3.463-3.46 3.385-7.51-.123-6.302-.604-12.616-1.86-18.794-.45-2.212-1.351-3.287-4.765-2.291-7.536 2.2-15.213 4.464-21.694 8.893" fill="#EB5E5B"/>
		<path d="M113.523 374.2c2.108-.832 5.553 7.28 6.088 8.423.675 1.444 1.295 1.802 3.068 1.145 6.3-2.331 12.638-4.682 18.427-8.09 1.618-.954 1.723-1.618 1.384-2.917-.435-1.663-2.407-7.9-4.034-8.41-.778-.242-.269-.279-15.177 4.96-3.472 1.219-7.015 2.476-9.908 4.75" fill="#6C4170"/>
		<path d="M104.503 274.297c-3.672-7.533-4.38-16.465-1.937-24.481.547-1.799 1.365-3.691 3.018-4.587 5.222-2.826 21.833 7.173 30.036 18.435 15.72 21.583 14.003 34.18-9.958 52.849-1.038.809-7.044 5.452-8.313 5.803-6.164 1.7-10.825-12.662-7.336-21.434 1.42-3.57 3.774-5.377 14.014-15.001-7.73-6.785-17.974-9.12-19.524-11.584" fill="#FCB094"/>
		<path d="M126.946 293.113c-2.829-1.6-6.3-2.009-9.43-1.141a151.55 151.55 0 0 0-3.191 3.061c2.86-.541 5.913-.067 8.45 1.368 3.037 1.717 5.285 4.775 6.016 8.185.585 2.726.229 5.595-.652 8.24a24.208 24.208 0 0 1-1.017 2.534 121.374 121.374 0 0 0 4.322-3.62c.322-.72.615-1.452.865-2.203.88-2.646 1.236-5.513.652-8.238-.731-3.413-2.979-6.468-6.015-8.186" fill="#6C4170"/>
		<path d="M105.584 245.23c-1.06.574-1.775 1.558-2.298 2.664 13.874 5.702 26.034 15.57 34.362 28.052 2.893 4.333 5.412 9.31 4.965 14.5-1.166 13.583-24.25 28.698-34.506 36.16 3.27-.858 6.572-2.487 9.243-4.292 1.43-.397 8.56-5.984 9.771-6.955 1.92-1.536 3.652-3.013 4.323-3.618 18.342-16.168 18.518-28.384 4.176-48.077-8.203-11.264-24.814-21.262-30.036-18.435" fill="#FFEDD5"/>
		<path d="M122.387 251.062c-3.02 3.772-3.884 8.478-3.53 9.27.15.337 6.87 5.47 10.46 7.231.783-2.049 3.263-4.544 4.791-5.843-3.276-3.983-7.489-7.711-11.721-10.658" fill="#EB5E5B"/>
		<path d="M129.97 266.296c1.085-1.73 2.917-3.535 4.14-4.576a47.74 47.74 0 0 0-1.236-1.44l-.105-.115a54.224 54.224 0 0 0-1.226-1.32l-.081-.085a58.717 58.717 0 0 0-2.797-2.704l-.102-.092a61.664 61.664 0 0 0-2.988-2.528c-.02-.018-.043-.034-.065-.051a63.43 63.43 0 0 0-3.122-2.323c-1.535 1.913-2.511 4.07-3.056 5.835a76.824 76.824 0 0 1 10.639 9.399m-25.187 58.674c-.689.516-.415 2.617 3.31 1.64 9.577-2.508 19.45-11.638 12.855-12.415-5.139-.606-6.806 2.493-15.4 9.367" fill="#FCB094"/>
		<path d="M114.758 316.98l-2.077.574c-1.794 1.506-4.002 3.504-7.131 6.006l-.766 1.41c-.688.516-.415 2.616 3.311 1.64.274-.072.548-.148.823-.232 4.823-4.12 5.84-9.399 5.84-9.399" fill="#6C4170"/>
		<path d="M108.346 312.6c-3.135 3.629-6.317 7.334-8.238 11.729-1.98 4.533 8.885.91 14.561-5.635 3.376-3.891 1.398-6.343-.11-7.058-1.862-.884-3.934-.03-5.567.737" fill="#FCB094"/>
		<path d="M108.832 314.66l-6.338 5.344c-.909 1.376-1.723 2.81-2.385 4.327-.92 2.106.933 2.447 3.75 1.557 2.972-4.207 4.973-11.229 4.973-11.229" fill="#6C4170"/>
		<path d="M102.366 309.992c-2.702 4.342-5.33 8.91-6.072 13.971-.382 2.593 1.51 3.252 5.306-.08 4.137-3.632 12.626-13 8.207-16.458-1.026-.804-2.512-.786-3.72-.295-1.208.491-2.2 1.384-3.165 2.26" fill="#FCB094"/>
		<path d="M113.17 297.645c-1.64-.676-3.798 3.254-6.219 5.057-2.146 1.723-4.693 2.866-6.983 4.394-5.66 3.779-8.55 9.408-8.539 10.189.024 1.797 3.148 1.44 6.787.26-.903 2.058-1.596 4.19-1.923 6.417-.257 1.753.526 2.62 2.232 1.969 5.072-8.725 10.472-17.167 15.264-21.29 1.043-3.385.79-6.415-.62-6.996M91.402 467.054c3.074-5.07 3.867-7.503 3.558-11.408-2.01 4.873-5.459 11.823-9.694 14.133-4.786 2.606-6.48.734-9.486-.531-4.676-1.972-12.956-1.06-16.365.579a9.25 9.25 0 0 0-2.21 1.48 23.27 23.27 0 0 0-.069 1.088c-.177 4.89 1.403 7.553 7.856 8.579 15.429 2.446 20.74-4.568 26.41-13.92" fill="#6C4170"/>
		<path d="M66.752 481.212c.422.05.839.093 1.244.129l.143.01a35.503 35.503 0 0 0 1.336.081c.454.02.9.028 1.335.028-.748-4.496-1.126-8.914.378-13.238-4.342-.377-9.318.427-11.772 1.604a9.216 9.216 0 0 0-2.21 1.482 23.762 23.762 0 0 0-.069 1.086c-.178 4.89 1.4 7.556 7.855 8.58.517.08 1.02.152 1.514.212.084.01.164.017.246.026" fill="#1B0042"/>
		<path d="M120.176 465.85c1.981 2.7 5.572 3.61 8.896 4.015 5.035.613 12.508.398 15.797-3.194 1.587-1.731 2.196-4.563 2.064-7.051-.572-.207-1.187-.34-1.781-.442-13.911-2.403-15.763 2.879-20.87 2.513-2.1-.15-4.397-1.396-6.103-4.397.208 3.825.464 6.467 1.997 8.555" fill="#6C4170"/>
		<path d="M129.837 469.95l.48.044c.052.004.104.01.156.013.207.018.42.034.633.047l.112.006a36.358 36.358 0 0 0 2.086.07h.146a41.158 41.158 0 0 0 .721-.007c.47-.01.94-.032 1.41-.064l.146-.01c.207-.015.415-.032.622-.052l.09-.008c.24-.024.478-.05.716-.08l.073-.01c.21-.028.418-.057.625-.089.045-.008.09-.016.136-.022.463-.076.92-.165 1.366-.27l.115-.027c.19-.046.38-.095.568-.147l.109-.03c.22-.063.44-.129.653-.2h.001c.495-5.73-.804-8.53-2.85-10.555-7.607.16-9.616 3.422-13.67 3.133-2.1-.15-4.396-1.397-6.102-4.398v.003c.006.123.014.24.021.361l.02.366.021.33.024.37c.008.106.016.208.022.311l.028.36c.008.103.017.203.027.305a24.193 24.193 0 0 0 .06.632c.013.11.023.218.036.324l.036.282.041.312c.013.092.028.182.043.274.016.1.031.197.049.295l.047.265.059.285c.018.085.035.168.055.251.021.093.045.186.068.277.02.08.042.16.063.239.025.09.053.181.08.27l.071.226c.03.089.063.176.094.264.027.071.052.144.08.214.034.088.073.174.11.258.029.068.057.136.087.202.041.089.087.175.131.262.03.06.06.122.092.179.053.096.11.19.166.283.028.048.055.097.085.145.089.139.182.276.28.411 1.983 2.7 5.572 3.61 8.896 4.017.195.021.392.044.594.065l.172.017" fill="#1B0042"/>
		<path d="M50.755 219.21c.346-1.802 1.428-6.778 2.719-8.093 1.498-1.527 17.57-6.712 30.926-2.221.366.124.741.26 1.029.52.707.64 2.623 5.124 2.955 10.045" fill="#373867"/>
		<path d="M53.315 219.228a38.938 38.938 0 0 1 .884-8.589c-.343.18-.592.342-.725.477-1.291 1.315-2.373 6.292-2.719 8.094l2.56.018z" fill="#1B0042"/>
		<path d="M78.5 193.64c-2.89-.053-6.06.19-9.538.739-2.741 2.418-4.661 5.712-5.684 9.187-1.298 4.418-1.258 9.113-.647 13.667l9.594-.792c-.61-4.556-.651-9.252.648-13.668 1.014-3.45 2.916-6.72 5.627-9.133" fill="#FCB094"/>
		<path d="M90.288 249.989c3.46-2.352 7.112-6.215 7.083-10.656-.039-5.546-.3-11.265-1.8-16.63-.538-1.93-1.024-2.653-2.926-3.786-12.676-7.54-29.33-5.859-41.966-.992-4.352 1.678-3.956 3.67-4.052 5.635-.182 3.68.925 20.188 9.921 26.972 7.168 5.405 23.195 6.622 33.74-.543" fill="#FCB094"/>
		<path d="M56.014 234.407c-1.948-5.578-2.936-11.56-2.646-17.444-.914.306-1.812.626-2.689.964-4.351 1.675-3.956 3.667-4.052 5.634-.182 3.679.924 20.19 9.922 26.972 2.697 2.034 6.652 3.477 11.097 4.1-4.89-6.122-9.057-12.846-11.632-20.226" fill="#EB5E5B"/>
		<path d="M94.219 364.527c-13.21-1.295-25.662-8.2-34.165-18.356a202.615 202.615 0 0 0-.727 7.289c9.072 9.067 21.554 14.78 34.394 15.225a55.58 55.58 0 0 0 .498-4.158" fill="#6C4170"/>
		<path d="M93.72 368.685c.05-.326.097-.65.142-.973l.021-.149a59.15 59.15 0 0 0 .14-1.098c.08-.652.147-1.299.196-1.938-.015 0-.03-.004-.046-.006-1.124 1.156-2.006 2.562-2.75 4.026.764.065 1.53.11 2.298.138" fill="#EB5E5B"/>
		<path d="M60.053 346.17c-.138 1.17-.265 2.346-.384 3.523-.005.054-.01.108-.017.164-.12 1.197-.228 2.398-.326 3.602a52.84 52.84 0 0 0 12.726 9.358 92.58 92.58 0 0 1 1.268-5.319 52.884 52.884 0 0 1-13.267-11.328" fill="#1B0042"/>
		<path d="M101.897 366.84c12.437-3.956 23.718-11.4 32.374-21.157a10.993 10.993 0 0 0-.082-.312c-.302-2.22-.678-4.43-1.123-6.626-8.262 10.682-19.507 19.068-32.17 23.78-1.94.722-3.938 1.384-5.653 2.53.204 1.358.52 2.7.901 4.03 1.765-1.058 3.786-1.62 5.753-2.246" fill="#6C4170"/>
		<path d="M134.172 345.25a101.95 101.95 0 0 0-.222-1.536l-.032-.194c-.076-.49-.154-.98-.236-1.469l-.008-.037a103.644 103.644 0 0 0-.608-3.268 73.766 73.766 0 0 1-9.6 10.206c.17.415.337.83.496 1.249a52.677 52.677 0 0 1 1.342 4.015 73.726 73.726 0 0 0 8.967-8.534l-.02-.08c-.02-.077-.04-.155-.062-.23l-.017-.123" fill="#EB5E5B"/>
		<path d="M109.152 364.076c-.728-1.756-1.499-3.095-2.29-4.104a70.924 70.924 0 0 1-5.966 2.554c-1.939.72-3.936 1.383-5.65 2.528.02.133.043.263.064.395.027.156.052.31.08.466a34.74 34.74 0 0 0 .755 3.17c1.764-1.058 3.786-1.62 5.752-2.245a70.837 70.837 0 0 0 7.255-2.764" fill="#1B0042"/>
		<path d="M126.946 293.113c-2.829-1.6-6.3-2.009-9.43-1.141a151.55 151.55 0 0 0-3.191 3.061c2.86-.541 5.913-.067 8.45 1.368 3.037 1.717 5.285 4.775 6.016 8.185.585 2.726.229 5.595-.652 8.24a24.208 24.208 0 0 1-1.017 2.534 121.374 121.374 0 0 0 4.322-3.62c.322-.72.615-1.452.865-2.203.88-2.646 1.236-5.513.652-8.238-.731-3.413-2.979-6.468-6.015-8.186" fill="#6C4170"/>
		<path d="M133.002 306.804a87.809 87.809 0 0 1-4.33 4.104 19.952 19.952 0 0 1-.533 1.918 24.478 24.478 0 0 1-1.017 2.533c.345-.276.682-.548 1.016-.821l.274-.225c.28-.23.558-.46.83-.688l.182-.15c.697-.582 1.37-1.162 2.02-1.734.321-.72.615-1.454.866-2.204.295-.888.53-1.806.692-2.733" fill="#FCB094"/>
		<path d="M24.65 305.52c-3.675-2.548-8.468-3.359-12.801-2.309a348.06 348.06 0 0 0-2.71 4.504c4.53-1.348 9.678-.604 13.572 2.095 2.615 1.812 4.6 4.463 5.725 7.437a201.674 201.674 0 0 1 2.256-3.368c-1.04-3.345-3.16-6.362-6.042-8.36" fill="#6C4170"/>
		<path d="M24.65 305.52c-3.675-2.548-8.468-3.359-12.801-2.309a348.06 348.06 0 0 0-2.71 4.504c4.53-1.348 9.678-.604 13.572 2.095 2.615 1.812 4.6 4.463 5.725 7.437a201.674 201.674 0 0 1 2.256-3.368c-1.04-3.345-3.16-6.362-6.042-8.36" fill="#6C4170"/>
		<path d="M28.436 317.247c.362-.555.73-1.11 1.1-1.662.008-.012.016-.021.023-.034.376-.558.752-1.117 1.133-1.673a16.505 16.505 0 0 0-2.259-4.58 64.597 64.597 0 0 0-2.322 3.77 16.416 16.416 0 0 1 2.325 4.18" fill="#FCB094"/>
		<path d="M130.211 277.29c-5.306-3.812-11.467-6.246-17.045-9.65-4.94-3.015-9.605-7.104-11.752-12.395-.824 6.47.229 13.185 3.09 19.05 1.549 2.469 11.794 4.8 19.521 11.584-10.24 9.627-12.594 11.433-14.014 15.004-1.074 2.7-1.373 5.933-1.096 9.06 1.682-2.155 3.33-3.983 4.913-5.336 5.703-4.886 11.818-9.304 17.147-14.593 1.86-1.844 3.738-4.11 3.558-6.724-.175-2.544-2.25-4.513-4.322-6" fill="#6C4170"/>
		<path d="M126.946 293.113c-2.829-1.6-6.3-2.009-9.43-1.141l-.007.006c-.633.595-1.21 1.14-1.738 1.646l-.003.003c-.528.506-1.006.97-1.44 1.404l-.003.002c2.86-.541 5.913-.067 8.45 1.368.206.116.407.239.606.369a150.475 150.475 0 0 0 3.991-3.4c-.142-.086-.282-.175-.426-.257" fill="#1B0042"/>
		<path d="M53.062 255.057c-.836-1.897-1.914-3.665-3.249-5.09-.837-.892-2.185-1.074-3.252-.476-6.874 3.844-11.731 10.004-15.63 16.824-1.912 2.55-9.841 20.906-11.377 23.965-3.906 7.776-18.428 27.858-18.893 36.951-2.77 14.238 3.975 26.215 6.272 23.871 1.319 1.652 2.716 2.434 3.895 1.964.38-.15.684-.422.919-.755.463.582.953 1.12 1.466 1.607.134.126.271.222.409.292-1.11-3.685-2.045-8.183-2.147-13.82-.035-1.983.019-4.07-.919-5.818-1.062-1.981-3.254-3.229-4.09-5.316-2.322-5.804 5.597-9.289 17.28-32.013 7.174-13.953 13.935-33.076 29.316-42.186" fill="#6C4170"/>
		<path d="M11.848 303.211c-.9 1.471-1.812 2.982-2.71 4.505 2.844-.846 5.93-.868 8.797-.1a152.515 152.515 0 0 0 2.444-4.144 16.307 16.307 0 0 0-8.531-.26" fill="#1B0042"/>
		<path d="M23.765 346.52c-2.61-3.111-3.868-7.119-6.032-10.555-.09-.14-.185-.288-.328-.37-.446-.262-.978.217-1.162.7a5.054 5.054 0 0 0-.113.33c1.372 7.27 6.197 13.784 7.78 10.064l-.145-.17" fill="#6C4170"/>
		<path d="M95.866 310.566c-2.947 3.086-4.444 6.158-4.438 6.72.024 1.794 3.15 1.438 6.787.26 1.149-2.62 2.637-5.122 4.15-7.555l.556-.602c.965-.876 1.958-1.768 3.165-2.26a4.67 4.67 0 0 1 1.282-.32s-7.722-.003-11.502 3.757m-64.124-28.964l6.591-12.057c-1.994-1.889-4.666-3.033-7.402-3.229-2.432 4.255-4.492 8.77-6.43 13.145 2.522.232 5 .957 7.24 2.14" fill="#1B0042"/>
		<path d="M58.594 328.977c19.388 6.956 19.467-16 15.95-37.45" stroke="#373867" stroke-width="2.92"/>
		<path d="M63.471 274.843l2.983 17.033c.132.756.804 1.3 1.572 1.269l25.002-.964a1.534 1.534 0 0 0 1.467-1.694l-1.898-17.992a1.536 1.536 0 0 0-1.64-1.372l-26.086 1.925c-.906.065-1.556.9-1.4 1.795" fill="#6C4170"/>
		<path d="M64.871 273.047a1.537 1.537 0 0 0-1.4 1.795l2.983 17.035a1.54 1.54 0 0 0 1.572 1.27l6.518-.253c-1.747-8.156-3.156-14.782-4.36-20.24l-5.313.393z" fill="#1B0042"/>
		<path d="M142.203 386.049c-.122-6.304-.604-12.619-1.861-18.797-.449-2.21-1.35-3.287-4.765-2.29-1.28.373-2.563.75-3.843 1.137 2.778 3.719 3.701 8.734 4.244 13.45.578 5.022.92 10.067 1.043 15.12.584-.329 1.18-.698 1.797-1.111 2.883-1.943 3.463-3.46 3.385-7.51" fill="#FFEDD5"/>
		<path d="M138.457 364.352c-.582-.182-.445-.247-6.588 1.926 2.465 3.408 3.423 7.861 3.976 12.17a66.56 66.56 0 0 0 5.26-2.77c1.62-.955 1.723-1.618 1.386-2.916-.436-1.663-2.407-7.9-4.034-8.41" fill="#EB5E5B"/>
		<path d="M87.993 251.368a25.319 25.319 0 0 0 2.295-1.38c3.46-2.352 7.113-6.215 7.081-10.655-.037-5.548-.297-11.263-1.798-16.632-.539-1.928-1.025-2.653-2.925-3.783-4.816-2.865-10.204-4.396-15.728-4.93 9.309 6.004 15.639 16.978 14.168 27.913-.447 3.313-1.558 6.489-3.093 9.467" fill="#FFEDD5"/>
	</g>

	<g class="animation-moon-right">
        <g transform="translate(460 -.952)">
    	  <mask id="d" fill="#fff">
    		<use xlink:href="#c"/>
    	  </mask>
    	  <path d="M119.064 60.467c0 32.869-26.646 59.515-59.516 59.515C26.68 119.982.034 93.336.034 60.467S26.68.952 59.548.952c32.87 0 59.516 26.646 59.516 59.515" fill="#6C4170" mask="url(#d)"/>
    	</g>

		<path d="M528.556 4.295l.257 3.563 8.297.832-3.457 5.825 4.701 2.26 6.223-1.309.83-2.853 7.882 3.33 6.775 4.872s1.468-.495 3.638-1.203c-7.736-8.556-17.927-14.842-29.459-17.769l.013-.01a59.546 59.546 0 0 0-13.65-1.82l2.868 2.73 5.082 1.552zm1.603 101.753l-11.53 6.657-6.182-1.248-.832-2.556h-4.28v3.448h-2.853l-2.258-1.665h-3.685l-2.06 3.708a59.326 59.326 0 0 0 23.07 4.638c11.324 0 21.91-3.164 30.92-8.654l-7.234-4.328H530.16zM566.28 22.66l-5.248 1.154-5.393-2.404-1.659-2.972-6.362-1.308-9.54 1.902v3.031l-4.425 3.27v3.21l2.904 4.041-2.904 2.972 6.084 5.468 5.946 6.776 9.127.475 3.18-2.14 2.628.595.967 2.734 2.904 2.021-1.936 5.23 2.628 2.8 1.105 4.452-2.765 2.377.692 4.636L562 77.281l.277 3.804-2.766 3.685 1.521 3.566-3.457 4.041 1.521 1.427 4.01-3.09 3.734-.833 3.68.372c5.422-8.972 8.543-19.49 8.543-30.738A59.257 59.257 0 0 0 566.28 22.66zm-88.782 6.952v1.664h2.615l2.615 2.021 1.427-2.496-4.162-1.189h-2.495zm12.957 4.993l2.615.713v-2.615h-2.14l-.475 1.902zm7.795 70.373l5.935 3.923 2.563-1.07-2.968-3.328-1.348-6.182 4.316-2.853 2.023-5.706 4.586-2.972 1.08-6.18 7.147-3.329 4.046-5.706.27-5.587 6.474-4.518-2.967-5.468-9.576-.95-7.958-3.567-1.888-7.133-7.149 1.546-4.45-4.517h-5.935l-1.889-1.902-6.204 1.188-3.238 2.616-.145.516-2.148-.873-3.64.357v-2.02l2.158-2.736-3.237-.594v-1.248l2.427-3.745-1.686-.832-3.574 3.686-1.349-.119 1.35-4.399 5.26-6.419 3.911-1.07 1.214 3.448 1.618-.357 1.89-6.3 5.798-1.902 2.563-3.567 7.283-1.426 5.935-3.329 1.348-2.734 6.34 2.615 2.832-2.02-5.26-5.112L511.5.544c-21.29 2.88-39.004 17.013-46.957 36.217l1.068 1.53 3.102 1.188 4.182 1.426 1.618 3.566h4.315l1.66 1.05-.31 1.09-4.316 7.49 1.35 3.803-2.024 2.853 5.26 9.748 2.697-.119 5.665 2.615.674 8.916 3.103 2.972-.81 7.132 6.474 12.957zm-13.62-71.68l2.26 1.307 2.198-2.02-.892-1.784-3.566 1.188v1.308z" fill="#EB5E5B"/>
		<path d="M565.361 97.504c-3.416 3.836-3.94 4.426-7.29 7.374-2.659 2.122-5.17 4.125-9.25 6.46-3.382 1.806-3.514 1.876-5.687 2.83-2.908 1.19-2.908 1.19-4.499 1.733-2.476.793-2.476.793-3.757 1.135-2.198.552-2.198.552-3.309.781-2.04.393-2.04.393-3.063.55-1.98.275-1.98.275-2.97.376-2 .178-2 .178-3.005.228-2.074.078-2.114.08-3.187.076-2.254-.04-2.343-.042-3.555-.118-2.629-.212-2.73-.22-4.192-.416-5.23-.826-7.988-1.516-12.83-3.212-4.49-1.833-5.595-2.365-9.849-4.746-4.294-2.785-4.953-3.213-8.316-6.024-4.04-3.759-4.463-4.153-6.992-7.15-3.485-4.563-3.77-4.936-5.655-8.149-2.774-5.275-2.94-5.59-4.232-9.019-1.389-4.266-2.7-8.295-3.383-14.538-.405-6.32-.42-6.567-.193-10.238.658-6.13.684-6.37 1.515-9.902 1.646-5.818 1.71-6.045 3.125-9.409 2.497-5.273 2.647-5.589 4.656-8.77 3.138-4.51 3.466-4.98 6.16-7.999 3.462-3.536 4.086-4.173 7.77-7.117 3.8-2.733 3.871-2.785 6.158-4.133-37.076 22.114-24.353 59.188 53.68 79.132 8.252 2.11 17.146 1.443 24.89 5.76.042.22.101.513.144.734v.001c-.862 1.134-1.957 2.69-2.884 3.77" fill="#1B0042"/>
		<path d="M492.586 84.889l-.81 7.132 6.475 12.958 5.935 3.922 2.562-1.069-2.967-3.329-1.348-6.181 4.315-2.853 2.024-5.706 4.585-2.972 1.08-6.182 3.023-1.407c-20.153-7.657-33.668-16.696-41.063-26.03l-.536.929 1.349 3.804-2.022 2.852 5.259 9.748 2.699-.119 5.665 2.615.673 8.916 3.102 2.972z" fill="#6C4170"/>
	</g>
  </g>
</svg>