<svg width="547" height="375" viewBox="0 0 547 375" xmlns="http://www.w3.org/2000/svg" preserveAspectRatio="xMinYMin slice">
	<g fill="none" fill-rule="evenodd">
		<g class="animation-bird-right">
			<path d="M342.06 322.27c.2-.37.57-.6.85-.9.24-.28.4-.62.42-.98.63.62.85 1.6.56 2.44-.06.17-.15.35-.28.47a.82.82 0 0 1-.84.2c-.3-.07-.53-.3-.67-.55-.12-.2-.17-.47-.03-.66" fill="#1B0042"/>
			<path d="M342.6 322.36c-.73-.62-1.47-1.24-2.05-2-.17-.23-.32-.46-.5-.67-.2-.25-.46-.45-.72-.62-.94-.62-2.1-.85-3.2-.84-1.13 0-2.24.23-3.34.46l-.66.14c.26.84.8 1.87 1.6 2.27.8.42 1.84.4 2.53 1 .45.42.66 1.02.98 1.54.57.92 1.54 1.58 2.6 1.77l1.83.5c.7 1.2 2.1 1.98 3.5 1.93.7-.03 1.4-.24 2.07-.1.5.1.95.4 1.43.62 1.62.72 3.56.25 4.9-.9-.92-.66-1.67-1.5-2.5-2.28-2.46-2.24-3.67-1.56-5.36-1.67-.8-.05-1.56-.28-2.24-.67" fill="#1B0042"/>
			<path d="M342.22 325.92c-1 1.37-1.48 3.1-1.35 4.8v.1c-.03 0-.06 0-.08.02-.47.08-.96.13-1.37-.08-.5-.27-.74-.86-1-1.38-.25-.52-.6-1.03-1.08-1.34-.26-.17-.55-.27-.85-.35 1-.87 2-1.75 2.96-2.64" fill="#1B0042"/>
			<path d="M526.1 327.98c-19.84-18.14-29.58-12.68-43.27-13.54a42.15 42.15 0 0 1-15.4-4c.22-.44.4-.88.55-1.33 2.33-6.7.52-14.68-4.48-19.74-.32 2.87-1.5 5.63-3.38 7.82-1.68 1.96-3.9 3.5-5.53 5.43-4.9-4.14-9.67-8.45-13.53-13.56-1.36-1.8-2.6-3.67-4.07-5.36-1.68-1.9-3.65-3.55-5.77-4.95-7.56-5-16.87-6.83-25.94-6.77-9.08.06-18.03 1.9-26.9 3.74-1.75.36-3.5.7-5.24 1.08 2.1 6.84 6.48 15.13 12.87 18.36 6.6 3.34 14.94 3.2 20.47 8.12 3.68 3.26 5.37 8.15 7.96 12.32 3.7 5.98 9.5 10.6 16.1 13-7.3 6.7-14.68 13.28-22.2 19.73 2.4.6 4.76 1.47 6.84 2.8 3.97 2.55 6.7 6.63 8.8 10.85 2.05 4.2 3.9 9 8.04 11.15 3.3 1.73 7.3 1.32 10.95.6.2-.03.4-.08.54-.23.18-.2.17-.48.14-.75-.97-12.4 2.18-25.06 8.78-35.6 6.1 7.86 16.08 12.67 26.05 12.3 5.6-.2 11.24-1.9 16.72-.76 4.1.85 7.7 3.22 11.52 4.93 13.08 5.86 28.75 2.02 39.6-7.35-7.46-5.2-13.53-12.12-20.25-18.27" fill="#4B8CC6"/>
			<path d="M482.83 314.44a42.15 42.15 0 0 1-15.4-4c.2-.44.4-.88.55-1.33 2.33-6.7.53-14.68-4.48-19.73-.32 2.86-1.5 5.62-3.38 7.8-1.68 1.97-3.88 3.5-5.53 5.44-4.9-4.13-9.67-8.45-13.53-13.56-1.36-1.8-2.6-3.67-4.07-5.36-1.68-1.9-3.65-3.55-5.77-4.95-7.57-5-16.87-6.84-25.94-6.77-9.08.06-18.03 1.9-26.9 3.73l-3.95.8 15.1-2.03c6.02-.8 12.46-1.56 17.92 1.12 3.4 1.66 6.12 4.55 9.53 6.2 4.7 2.3 10.33 2.07 15 4.4 12.35 6.2 12.44 26.57 25.3 31.6 5.24 2.04 11.18.78 16.72 1.77 4.02.72 7.77 2.6 11.8 3.3 7.4 1.3 15.02-1.53 22.45-.44 9.53 1.4 16.85 8.77 24.08 15.14 4.03 3.55 8.68 7 13.63 8.98l.36-.3c-7.46-5.2-13.53-12.12-20.25-18.27-19.84-18.14-29.58-12.68-43.27-13.54" fill="#FDE8DF"/>
		</g>

		<g class="animation-bird-left">
			<path d="M144.4 41.86c-3.8-.8-7.73-.35-11.6-.15-3.88.2-7.93.1-11.37-1.7-2.17-1.14-3.96-2.9-6-4.26-2.95-2-6.38-3.15-9.8-4.14-4.04-1.16-8.3-2.1-12.45-1.92 2.9-6.84 7.84-12.83 12.08-19.05-4.85.64-9.9-.48-14.05-3.1-3.25-2.05-5.97-5-9.57-6.4-3.2-1.23-6.94-1.05-10 .5 3.75 9.3 6.75 19.3 6.04 29.23-9.14-4.15-20.24-2.77-29.2 1.9-2.67 1.37-5.3 3.05-8.28 3.38-1.87.2-3.74-.13-5.6-.37-6.5-.83-13.22-.4-19.36 1.9C9.1 39.92 3.58 44.1.22 49.7c13.87 2.7 20.27 10.73 31.08 13.9 10.6 3.12 14.5-1.9 29.83-6.1 4.63-1.28 9.5-2 14.25-1.43v1.44c.08 2.7.5 5.44 1.67 7.87 1.17 2.45 3.2 4.56 5.75 5.4a4.592 4.592 0 0 1-1.1-3.26c.13-2 1.5-3.66 2.7-5.27.6-.83 1.17-1.7 1.57-2.64.28-.67.46-1.4.5-2.12 10.6 1.33 17.8 6.84 23.3 8.5 16.6 4.96 39.17-8.7 48.9-14.27-3.7-4.6-8.5-8.64-14.27-9.87" fill="#4B8CC6"/>
			<g fill="#1B0042">
			<path d="M100.72 112.13c-.98-.22-2.02-.1-3 .18-2.73.76-3.42 1.66-5.32 1.1-1.93-.56-3.08-2-5.55-2.48.6-1 1.58-1.75 2.68-2.16 1.1-.4 2.3-.48 3.46-.33.32.04.66.1 1 .06.52-.07 1-.37 1.47-.6 1.68-.9 3.8-1.12 5.47-.23l1.46-.12c1.04-.4 2.2-.18 3.3.13.6.18 1.2.38 1.74.74.36.25.68.56 1.07.76.63.32 1.35.34 2.04.3.7-.03 1.4-.1 2.08.03 1.03.23 1.9.96 2.55 1.78-1.74 1-5.78 3.44-8.74 2.55-1.08-.33-2.54-1.5-4.77-1.57"/>
			<path d="M100.63 108.1c.3-1.97-.28-3.94-1.02-5.78.56-.27 1.22-.3 1.8-.1.64.26 1.13.8 1.7 1.16.75.47 1.65.67 2.52.55-.93 1.37-2.05 2.67-2.45 4.28m-2.88 3.66c-.02.15-.02.3-.02.45 0 .48.1.97.3 1.4.2.44.57.82 1.03.97a.984.984 0 0 1-.2-.6c.03-.35.28-.65.5-.94.1-.14.2-.3.27-.47.07-.18.1-.36.08-.55 0-.1-.05-.2-.1-.3-.1-.2-.24-.37-.42-.5-.18-.1-.4-.18-.62-.16-.36.02-.7.3-.8.64"/>
			</g>
			<path d="M93.18 29.68c2.9-6.84 7.84-12.83 12.08-19.05-4.85.64-9.9-.48-14.05-3.1-1-.63-1.97-1.36-2.92-2.1 2.32 3.25 3.05 7.68 1.58 11.4-.75 1.92-2.02 3.74-1.9 5.78.08 1.35.74 2.57 1.2 3.83 3.15 8.97-4.5 17.93-3.87 27.08 1.73-6.68 8.26-23.83 7.88-23.82" fill="#FDE8DF"/>
		</g>
	</g>
</svg>