<svg width="40" height="46" viewBox="0 0 40 46" xmlns="http://www.w3.org/2000/svg"><title>Share on Twitter</title><g fill="none" fill-rule="evenodd"><path d="M13.6 6.345L20 0l6.4 6.345H13.6zM40 46H0V6.345h40V46z" fill="#000"/><path d="M26.476 24.375c0 1.02-.195 2.034-.586 3.043-.39 1.01-.942 1.933-1.655 2.77-.712.837-1.64 1.514-2.784 2.033-1.14.52-2.386.78-3.734.78-1.7 0-3.27-.452-4.716-1.356.254.02.498.03.73.03 1.447 0 2.726-.434 3.84-1.3-.664 0-1.255-.196-1.773-.59-.517-.395-.873-.9-1.07-1.515.197.038.402.057.617.057.33 0 .625-.03.88-.086-.685-.153-1.238-.504-1.658-1.053-.418-.548-.63-1.186-.63-1.917l.002-.058c0 .115.13.206.394.274.264.067.543.1.835.1-.448-.288-.82-.654-1.113-1.096-.293-.44-.44-.913-.44-1.414 0-.538.137-1.047.41-1.528.782.942 1.725 1.692 2.829 2.25 1.102.558 2.28.866 3.53.923-.06-.23-.09-.46-.09-.69 0-.828.305-1.54.91-2.135.605-.597 1.328-.895 2.167-.895.9 0 1.65.318 2.256.95.684-.133 1.338-.373 1.963-.72-.235.713-.694 1.27-1.378 1.674.625-.078 1.22-.24 1.788-.49-.43.614-.948 1.144-1.554 1.585.02.135.03.26.03.375z" fill="#FFF"/></g></svg>